<svg xmlns="http://www.w3.org/2000/svg" width="550.285" height="330.124" viewBox="0 0 550.285 330.124">
  <g id="Group_5" data-name="Group 5" transform="translate(-1118 -600)">
    <g id="Group_29375" data-name="Group 29375" transform="translate(1112.208 600)">
      <path id="Path_1" data-name="Path 1" d="M514.19,168.606H464.752a6.185,6.185,0,0,1-6.184-6.184V94a6.183,6.183,0,0,1,6.184-6.184H496.1l24.27,25.014v49.593a6.185,6.185,0,0,1-6.184,6.184Z" fill="#ebebeb"/>
      <path id="Path_2" data-name="Path 2" d="M496.1,87.815V107.07a5.76,5.76,0,0,0,5.718,5.759h18.519Z" fill="#f5f5f5"/>
      <path id="Path_3" data-name="Path 3" d="M496.357,108.76s-.245,4.673,5.073,6.209c.205.057.409.1.613.139,2.451.433,18.331,3.267,18.331,2.891v-5.17H501.855S497.232,112.673,496.357,108.76Z" fill="#e0e0e0"/>
      <path id="Path_4" data-name="Path 4" d="M514.19,168.606a6.956,6.956,0,0,0,1.07-.123,6.253,6.253,0,0,0,2.8-1.307,6.127,6.127,0,0,0,2.214-4.362v-6.895c0-10.358-.049-25.184-.082-43.09l.049.122-24.286-24.98.147.065H466.149a15.13,15.13,0,0,0-2.369.09,5.951,5.951,0,0,0-3.88,2.451,5.864,5.864,0,0,0-1.1,3.039v67.426a14.375,14.375,0,0,0,.114,2.6,6.031,6.031,0,0,0,2.8,3.978,5.911,5.911,0,0,0,2.28.817,19.835,19.835,0,0,0,2.45.065h9.329l28.158.066,7.654.041h-7.654l-28.158.073h-9.4a21.32,21.32,0,0,1-2.451-.057,6.339,6.339,0,0,1-5.375-5.048,13.879,13.879,0,0,1-.131-2.663V93.566a6.373,6.373,0,0,1,5.326-5.849,15.453,15.453,0,0,1,2.451-.09h30.045l.057.065,24.254,25.029.049.049v.074c0,17.906-.058,32.733-.074,43.091,0,2.589,0,4.9-.049,6.9a6.2,6.2,0,0,1-5.163,5.719,4.217,4.217,0,0,1-.817.065A2.3,2.3,0,0,1,514.19,168.606Z" fill="#e0e0e0"/>
      <path id="Path_5" data-name="Path 5" d="M520.374,112.829a2.209,2.209,0,0,1-.474,0l-1.364.04-5.016.066-7.442.049h-4.395a5.99,5.99,0,0,1-5.514-4.158,6.779,6.779,0,0,1-.269-2.361V102.07c0-2.785,0-5.31.049-7.442s.049-3.774.065-5.016V88.248a2.153,2.153,0,0,1,.041-.474,1.635,1.635,0,0,1,0,.474v1.364c0,1.242.041,2.941.074,5.016s0,4.656.04,7.442v4.395a5.726,5.726,0,0,0,1.389,4.223,5.553,5.553,0,0,0,3.987,1.879h4.386l7.442.041,5.016.074h1.364A1.611,1.611,0,0,1,520.374,112.829Z" fill="#e0e0e0"/>
      <path id="Path_6" data-name="Path 6" d="M495.173,105c0,.122-5.841.22-13.071.22s-13.07-.1-13.07-.22,5.841-.213,13.07-.213S495.173,104.88,495.173,105Z" fill="#e0e0e0"/>
      <path id="Path_7" data-name="Path 7" d="M507.549,114.6c0,.123-8.61.213-19.23.213s-19.229-.09-19.229-.213,8.61-.212,19.229-.212S507.549,114.487,507.549,114.6Z" fill="#e0e0e0"/>
      <path id="Path_8" data-name="Path 8" d="M507.549,124.208c0,.122-8.61.212-19.23.212s-19.229-.09-19.229-.212S477.7,124,488.319,124,507.549,124.093,507.549,124.208Z" fill="#e0e0e0"/>
      <path id="Path_9" data-name="Path 9" d="M507.549,133.814c0,.123-8.61.213-19.23.213s-19.229-.09-19.229-.213,8.61-.212,19.229-.212S507.549,133.716,507.549,133.814Z" fill="#e0e0e0"/>
      <path id="Path_10" data-name="Path 10" d="M507.549,143.421c0,.123-8.61.212-19.23.212s-19.229-.089-19.229-.212,8.61-.212,19.229-.212S507.549,143.307,507.549,143.421Z" fill="#e0e0e0"/>
      <path id="Path_11" data-name="Path 11" d="M507.549,155.274c0,.114-8.61.212-19.23.212s-19.229-.1-19.229-.212,8.61-.212,19.229-.212S507.549,155.152,507.549,155.274Z" fill="#e0e0e0"/>
      <path id="Path_12" data-name="Path 12" d="M486.024,136.4H450.93a3.447,3.447,0,0,0-3.447,3.447v11.976a3.447,3.447,0,0,0,3.447,3.447h35.094a3.447,3.447,0,0,0,3.447-3.447V139.851A3.447,3.447,0,0,0,486.024,136.4Z" fill="#e0e0e0"/>
      <path id="Path_13" data-name="Path 13" d="M452.352,142.555h3.267c2.336,0,3.929,1.405,3.929,3.57s-1.593,3.562-3.929,3.562h-3.267Zm3.153,5.776A2.215,2.215,0,0,0,457.671,147a2.214,2.214,0,0,0-2.166-3.088H454v4.42Z" fill="#fff"/>
      <path id="Path_14" data-name="Path 14" d="M460.308,146.125a3.905,3.905,0,1,1,3.9,3.684,3.691,3.691,0,0,1-3.9-3.684Zm6.135,0a2.23,2.23,0,1,0-2.23,2.279,2.174,2.174,0,0,0,2.23-2.279Z" fill="#fff"/>
      <path id="Path_15" data-name="Path 15" d="M468.9,146.125a3.921,3.921,0,0,1,6.8-2.451l-1.061.981a2.263,2.263,0,0,0-.8-.613,2.239,2.239,0,0,0-.987-.2,2.282,2.282,0,1,0,1.789,3.741l1.061.98a3.92,3.92,0,0,1-6.8-2.41Z" fill="#fff"/>
      <path id="Path_16" data-name="Path 16" d="M481.163,149.687l-1.723-2.451-1.683,2.451h-1.895l2.638-3.627-2.508-3.505h1.871l1.634,2.312,1.634-2.312h1.78L480.461,146l2.655,3.685Z" fill="#fff"/>
      <path id="Path_17" data-name="Path 17" d="M455.513,256.96l-37.43,65.458-74.067,1.07a4.475,4.475,0,0,0-4.411,4.231l75.317.213,2.834-.09,94.3.179,19.058-32.863,24.343-34.889a3.447,3.447,0,0,0-2.834-5.416l-94.139.359a3.458,3.458,0,0,0-2.973,1.748Z" fill="#ebebeb"/>
      <path id="Path_18" data-name="Path 18" d="M555.476,257.344a1.622,1.622,0,0,1-.45.049l-1.331.049-5.089.082-18.723.155-61.79.131h-4.5a3.708,3.708,0,0,0-3.423,1.634l-4.2,7.564-7.949,14.345-13.5,24.278c-3.847,6.837-6.976,12.392-9.182,16.337l-2.532,4.411c-.278.458-.5.817-.686,1.136a2.12,2.12,0,0,1-.254.376,1.417,1.417,0,0,1,.172-.425l.605-1.176,2.377-4.5c2.148-3.962,5.187-9.566,8.92-16.469l13.332-24.368,7.907-14.377,4.215-7.621a4.636,4.636,0,0,1,4.2-2.043h4.5l61.79.139,18.723.147,5.089.09h1.331A1.63,1.63,0,0,1,555.476,257.344Z" fill="#e0e0e0"/>
      <path id="Path_19" data-name="Path 19" d="M489.112,290.257c-1.634,1.846-1.708,4.525-.09,5.987a4.545,4.545,0,1,0,.09-5.987Z" fill="#fff"/>
      <path id="Path_20" data-name="Path 20" d="M12.5,258.194v39.145H5.963V301.6H12.5v26.2H134.672V303.948h-9.035v-5.22h9.035v-7.761h4.084V287.43h-4.819V258.194Z" fill="#f5f5f5"/>
      <path id="Path_21" data-name="Path 21" d="M102.242,258.3v69.06h32.446V303.515h-9.051v-4.763l9.051.164v-7.793l4.1.008-.073-4.028-4.779-.114v-28.8Z" fill="#e0e0e0"/>
      <path id="Path_22" data-name="Path 22" d="M104.554,301.031c0,.237-22.114.433-49.381.433s-49.381-.2-49.381-.433,22.1-.433,49.381-.433S104.554,300.786,104.554,301.031Z" fill="#e0e0e0"/>
      <path id="Path_23" data-name="Path 23" d="M104.554,297.094c0,.237-22.114.433-49.381.433s-49.381-.2-49.381-.433,22.1-.433,49.381-.433S104.554,296.816,104.554,297.094Z" fill="#e0e0e0"/>
      <path id="Path_24" data-name="Path 24" d="M110.893,286.352c0,.237-22.105.433-49.373.433s-49.381-.2-49.381-.433,22.105-.441,49.389-.441S110.893,286.107,110.893,286.352Z" fill="#e0e0e0"/>
      <path id="Path_25" data-name="Path 25" d="M111.5,315.515c0,.237-22.113.433-49.381.433s-49.381-.2-49.381-.433,22.105-.449,49.381-.449S111.5,315.278,111.5,315.515Z" fill="#e0e0e0"/>
      <path id="Path_26" data-name="Path 26" d="M420.24,91.532H371.954a6.036,6.036,0,0,1-6.045-6.037V18.65a6.036,6.036,0,0,1,6.045-6.037h30.657L426.3,37.046V85.52a6.036,6.036,0,0,1-6.061,6.012Z" fill="#ebebeb"/>
      <path id="Path_27" data-name="Path 27" d="M402.611,12.613V31.4a5.62,5.62,0,0,0,5.621,5.62H426.3Z" fill="#f5f5f5"/>
      <path id="Path_28" data-name="Path 28" d="M402.824,33.076s-.237,4.558,4.958,6.061a5.1,5.1,0,0,0,.589.131c2.369.425,17.914,3.186,17.914,2.835V37.046H408.2S403.682,36.891,402.824,33.076Z" fill="#e0e0e0"/>
      <path id="Path_29" data-name="Path 29" d="M420.24,91.532a6.574,6.574,0,0,0,1.045-.123,5.989,5.989,0,0,0,4.9-5.539V79.14c0-10.121-.041-24.6-.074-42.094l.049.123-23.69-24.417.139.065H373.318A15.454,15.454,0,0,0,371,12.9a5.843,5.843,0,0,0-3.791,2.369,5.729,5.729,0,0,0-1.062,2.965c-.049,1.07,0,2.2,0,3.268V84.1a13.748,13.748,0,0,0,.115,2.54,5.859,5.859,0,0,0,2.728,3.88,5.655,5.655,0,0,0,2.23.817,20.769,20.769,0,0,0,2.369.065H382.7l27.513.065,7.474.041h-7.474l-27.513.074H373.53a21.962,21.962,0,0,1-2.451-.057,6.207,6.207,0,0,1-5.26-4.9,14.105,14.105,0,0,1-.123-2.614v-65.8a6.111,6.111,0,0,1,1.144-3.186,6.225,6.225,0,0,1,4.084-2.532,14.809,14.809,0,0,1,2.394-.09H402.66l.066.057,23.689,24.458.058.049v.074c0,17.49-.058,31.973-.082,42.094,0,2.524,0,4.771-.041,6.739a6.037,6.037,0,0,1-5.048,5.588,3.916,3.916,0,0,1-.817.065Z" fill="#e0e0e0"/>
      <path id="Path_30" data-name="Path 30" d="M426.3,37.046a2.135,2.135,0,0,1-.466,0l-1.331.041-4.9.065H408.044a5.84,5.84,0,0,1-5.392-4.084,6.869,6.869,0,0,1-.27-2.312V19.2c0-2.091.058-3.684.074-4.9V12.964a1.53,1.53,0,0,1,.041-.457,2.058,2.058,0,0,1,0,.457V14.3c0,1.217.041,2.875.065,4.9s0,4.55.049,7.27v4.289a5.613,5.613,0,0,0,1.356,4.085,5.443,5.443,0,0,0,3.9,1.838h4.288l7.263.049,4.9.074h1.331A1.786,1.786,0,0,1,426.3,37.046Z" fill="#e0e0e0"/>
      <path id="Path_31" data-name="Path 31" d="M401.664,29.392c0,.123-5.718.221-12.735.221s-12.744-.1-12.744-.221,5.718-.212,12.744-.212S401.664,29.277,401.664,29.392Z" fill="#e0e0e0"/>
      <path id="Path_32" data-name="Path 32" d="M413.754,38.778c0,.123-8.414.212-18.789.212s-18.788-.09-18.788-.212,8.406-.212,18.788-.212S413.754,38.663,413.754,38.778Z" fill="#e0e0e0"/>
      <path id="Path_33" data-name="Path 33" d="M413.754,48.164c0,.114-8.414.212-18.789.212s-18.788-.1-18.788-.212,8.406-.212,18.788-.212S413.754,48.049,413.754,48.164Z" fill="#e0e0e0"/>
      <path id="Path_34" data-name="Path 34" d="M413.754,57.55c0,.114-8.414.212-18.789.212s-18.788-.1-18.788-.212,8.406-.212,18.788-.212S413.754,57.427,413.754,57.55Z" fill="#e0e0e0"/>
      <path id="Path_35" data-name="Path 35" d="M413.754,66.936c0,.114-8.414.212-18.789.212s-18.788-.1-18.788-.212,8.406-.212,18.788-.212S413.754,66.813,413.754,66.936Z" fill="#e0e0e0"/>
      <path id="Path_36" data-name="Path 36" d="M413.754,78.5c0,.123-8.414.212-18.789.212s-18.788-.09-18.788-.212,8.406-.212,18.788-.212S413.754,78.389,413.754,78.5Z" fill="#e0e0e0"/>
      <path id="Path_37" data-name="Path 37" d="M392.654,60.074H358.532a3.447,3.447,0,0,0-3.447,3.447V75.056a3.447,3.447,0,0,0,3.447,3.447h34.122a3.447,3.447,0,0,0,3.447-3.447V63.521A3.447,3.447,0,0,0,392.654,60.074Z" fill="#e0e0e0"/>
      <path id="Path_38" data-name="Path 38" d="M371.112,68.61c0,1.552-1.16,2.524-3.022,2.524h-1.422v1.92h-1.634V66.086h3.015C369.936,66.086,371.112,67.05,371.112,68.61Zm-1.634,0c0-.76-.5-1.209-1.486-1.209h-1.324v2.451h1.307c1.013-.033,1.511-.482,1.511-1.242Z" fill="#fff"/>
      <path id="Path_39" data-name="Path 39" d="M372.256,66.086h3.169c2.271,0,3.84,1.372,3.84,3.48s-1.569,3.488-3.84,3.488h-3.169Zm3.088,5.645a2.165,2.165,0,1,0,0-4.321h-1.471v4.321Z" fill="#fff"/>
      <path id="Path_40" data-name="Path 40" d="M382.083,67.377v1.846h3.267v1.291h-3.267v2.54h-1.634V66.086h5.261v1.291Z" fill="#fff"/>
      <path id="Path_41" data-name="Path 41" d="M176.333,62.239h26.092V17.277H176.333Z" fill="#ebebeb"/>
      <path id="Path_42" data-name="Path 42" d="M103.557,62.966h20.6V6.837h-20.6Z" fill="#ebebeb"/>
      <path id="Path_43" data-name="Path 43" d="M103.32,10.889c0-.172,4.705-.319,10.521-.319s10.522.147,10.522.319-4.714.31-10.522.31S103.32,11.061,103.32,10.889Z" fill="#fafafa"/>
      <path id="Path_44" data-name="Path 44" d="M104.447,13.552c0-.18,4.46-.319,9.95-.319s9.958.139,9.958.319-4.46.31-9.958.31S104.447,13.724,104.447,13.552Z" fill="#fafafa"/>
      <path id="Path_45" data-name="Path 45" d="M113.27,51.9c-.172,0-.319-7.442-.319-16.607s.147-16.607.319-16.607.31,7.434.31,16.607S113.433,51.9,113.27,51.9Z" fill="#fafafa"/>
      <path id="Path_46" data-name="Path 46" d="M103.557,57.027c0-.172,4.517-.31,10.08-.31s10.089.139,10.089.31-4.518.31-10.089.31S103.557,57.2,103.557,57.027Z" fill="#fafafa"/>
      <path id="Path_47" data-name="Path 47" d="M103.557,59.437c0-.172,4.623-.31,10.333-.31s10.342.139,10.342.31-4.632.31-10.342.31S103.557,59.608,103.557,59.437Z" fill="#fafafa"/>
      <path id="Path_48" data-name="Path 48" d="M124.142,62.958h16.55V.76h-16.55Z" fill="#e0e0e0"/>
      <path id="Path_49" data-name="Path 49" d="M124.052,29.326a16,16,0,0,1,2.566,1.773l5.971,4.534,5.963,4.542a16.343,16.343,0,0,1,2.394,1.993,15.138,15.138,0,0,1-2.655-1.634c-1.585-1.087-3.75-2.63-6.078-4.4s-4.4-3.439-5.873-4.681A14.966,14.966,0,0,1,124.052,29.326Z" fill="#fafafa"/>
      <path id="Path_50" data-name="Path 50" d="M123.971,19.589c.106-.131,3.9,2.933,8.463,6.845s8.169,7.189,8.063,7.352-3.9-2.933-8.472-6.845S123.857,19.72,123.971,19.589Z" fill="#fafafa"/>
      <path id="Path_51" data-name="Path 51" d="M52.223,63.007h7.916V3.758H52.223Z" fill="#ebebeb"/>
      <path id="Path_52" data-name="Path 52" d="M52.55,11.828c0,.2,1.634.368,3.709.368s3.709-.163,3.709-.368-1.634-.376-3.709-.376S52.55,11.616,52.55,11.828Z" fill="#fafafa"/>
      <path id="Path_53" data-name="Path 53" d="M52.387,10.538c0,.2,1.634.368,3.709.368s3.709-.163,3.709-.368-1.634-.376-3.709-.376S52.387,10.366,52.387,10.538Z" fill="#fafafa"/>
      <path id="Path_54" data-name="Path 54" d="M52.55,58.424c0,.2,1.634.376,3.709.376s3.709-.171,3.709-.376-1.634-.376-3.709-.376S52.55,58.22,52.55,58.424Z" fill="#fafafa"/>
      <path id="Path_55" data-name="Path 55" d="M52.387,57.133c0,.2,1.634.376,3.709.376s3.709-.172,3.709-.376-1.634-.376-3.709-.376S52.387,56.929,52.387,57.133Z" fill="#fafafa"/>
      <path id="Path_56" data-name="Path 56" d="M56.414,49.4c.212,0,.376-6.788.376-15.161s-.163-15.153-.376-15.153-.368,6.78-.368,15.153S56.251,49.4,56.414,49.4Z" fill="#fafafa"/>
      <path id="Path_57" data-name="Path 57" d="M87.693,62.623h15.831V3.374H87.693Z" fill="#e0e0e0"/>
      <path id="Path_58" data-name="Path 58" d="M99.072,63.382a1.235,1.235,0,0,0,.18-.319c.114-.221.27-.547.457-.988a17.133,17.133,0,0,0,1.144-4.019,10.469,10.469,0,0,0-.923-6.535,8.806,8.806,0,0,0-2.8-3.1,6.584,6.584,0,0,0-4.566-1.078,4.838,4.838,0,0,0-2.353,1.095,3.1,3.1,0,0,0-1.136,2.5,3.57,3.57,0,0,0,1.356,2.508,4.8,4.8,0,0,0,2.7,1.144,7.156,7.156,0,0,0,5.612-2.042,9.048,9.048,0,0,0,2.786-5.718,15.183,15.183,0,0,0-.817-6.609,12.207,12.207,0,0,0-3.881-5.775A6.412,6.412,0,0,0,93.411,33.1a4.444,4.444,0,0,0-3.562,1.266,2.859,2.859,0,0,0-.817,1.854,3.4,3.4,0,0,0,.539,1.936,5.163,5.163,0,0,0,3.2,2.181A7.45,7.45,0,0,0,99.742,38a11.655,11.655,0,0,0,2.72-6.674,16.346,16.346,0,0,0-.686-6.911,9.51,9.51,0,0,0-4.085-5.261,6.985,6.985,0,0,0-6.314-.621,3.308,3.308,0,0,0-2.05,2.451,3.839,3.839,0,0,0,.719,2.982,4.942,4.942,0,0,0,5.334,1.413,9.174,9.174,0,0,0,4.207-2.99,13.421,13.421,0,0,0,3.226-8.153,13.064,13.064,0,0,0-3.953-9.8,8.321,8.321,0,0,0-.817-.711,1.489,1.489,0,0,0-.3-.212,15.161,15.161,0,0,1,3.309,4.4,12.887,12.887,0,0,1,1.307,6.29,13.07,13.07,0,0,1-3.145,7.8,8.644,8.644,0,0,1-3.97,2.778,4.354,4.354,0,0,1-4.673-1.225,3.218,3.218,0,0,1-.588-2.451,2.671,2.671,0,0,1,1.683-1.944,6.355,6.355,0,0,1,5.669.653,8.865,8.865,0,0,1,3.774,4.9,15.833,15.833,0,0,1,.629,6.609,10.963,10.963,0,0,1-2.54,6.249,6.731,6.731,0,0,1-6.257,2.108,4.4,4.4,0,0,1-2.728-1.846,2.271,2.271,0,0,1,.172-2.892,3.725,3.725,0,0,1,2.973-1.037A5.718,5.718,0,0,1,96.376,35.1a11.611,11.611,0,0,1,3.652,5.424,14.513,14.513,0,0,1,.817,6.3,8.353,8.353,0,0,1-2.549,5.3,6.536,6.536,0,0,1-5.1,1.9c-1.74-.139-3.439-1.47-3.545-3.071a2.573,2.573,0,0,1,.923-2.059,4.355,4.355,0,0,1,2.083-.98,6.053,6.053,0,0,1,4.215.956,8.169,8.169,0,0,1,2.7,2.9,10.2,10.2,0,0,1,1,6.282,18.549,18.549,0,0,1-1,4A13.762,13.762,0,0,0,99.072,63.382Z" fill="#fafafa"/>
      <path id="Path_59" data-name="Path 59" d="M60.017,62.647H87.48V8.684H60.017Z" fill="#fafafa"/>
      <path id="Path_60" data-name="Path 60" d="M60.948,17.653c0,.212,5.955.376,13.3.376s13.291-.163,13.291-.376-5.963-.368-13.315-.368S60.948,17.449,60.948,17.653Z" fill="#e0e0e0"/>
      <path id="Path_61" data-name="Path 61" d="M60.613,21.746c0,.2,5.874.376,13.119.376s13.127-.171,13.127-.376-5.874-.376-13.127-.376S60.613,21.541,60.613,21.746Z" fill="#e0e0e0"/>
      <path id="Path_62" data-name="Path 62" d="M59.731,56.553c0,.2,6.184.368,13.814.368s13.822-.163,13.822-.368-6.184-.376-13.822-.376S59.731,56.349,59.731,56.553Z" fill="#e0e0e0"/>
      <path id="Path_63" data-name="Path 63" d="M60.1,51.742c0,.2,6.029.376,13.462.376s13.47-.172,13.47-.376-6.029-.376-13.47-.376S60.1,51.537,60.1,51.742Z" fill="#e0e0e0"/>
      <path id="Path_64" data-name="Path 64" d="M140.676,62.247h15.832V3H140.676Z" fill="#ebebeb"/>
      <path id="Path_65" data-name="Path 65" d="M152.055,63.007a3.207,3.207,0,0,0,.188-.327c.115-.22.262-.547.45-.98a17.141,17.141,0,0,0,1.151-4.019,10.45,10.45,0,0,0-.923-6.535,8.615,8.615,0,0,0-2.81-3.1,6.535,6.535,0,0,0-4.558-1.078,4.783,4.783,0,0,0-2.361,1.086,3.131,3.131,0,0,0-1.135,2.5,3.643,3.643,0,0,0,1.356,2.516,4.976,4.976,0,0,0,2.7,1.144,7.207,7.207,0,0,0,5.612-2.042,9.03,9.03,0,0,0,2.777-5.718,15.048,15.048,0,0,0-.817-6.609,12.19,12.19,0,0,0-3.88-5.775,6.348,6.348,0,0,0-3.423-1.348,4.426,4.426,0,0,0-3.545,1.331,2.931,2.931,0,0,0-.817,1.854,3.388,3.388,0,0,0,.547,1.936,5.138,5.138,0,0,0,3.194,2.181,7.459,7.459,0,0,0,6.977-2.336,11.625,11.625,0,0,0,2.712-6.666,16.431,16.431,0,0,0-.678-6.919,9.576,9.576,0,0,0-4.085-5.261,7.033,7.033,0,0,0-6.29-.662,3.334,3.334,0,0,0-2.042,2.451,3.861,3.861,0,0,0,.719,2.99,4.9,4.9,0,0,0,5.334,1.405,9.2,9.2,0,0,0,4.232-3.047,13.484,13.484,0,0,0,3.161-8.169,13.022,13.022,0,0,0-1.47-6.437,12.753,12.753,0,0,0-2.451-3.357c-.351-.327-.629-.564-.817-.711s-.294-.221-.3-.2a15.149,15.149,0,0,1,3.357,4.4,12.982,12.982,0,0,1,1.307,6.29,13.123,13.123,0,0,1-3.145,7.8,8.694,8.694,0,0,1-3.97,2.778,4.353,4.353,0,0,1-4.672-1.233,3.177,3.177,0,0,1-.589-2.451,2.625,2.625,0,0,1,1.683-1.936,6.322,6.322,0,0,1,5.669.645,8.853,8.853,0,0,1,3.766,4.9,15.7,15.7,0,0,1,.629,6.609,10.931,10.931,0,0,1-2.532,6.249,6.733,6.733,0,0,1-6.258,2.107,4.377,4.377,0,0,1-2.736-1.846,2.278,2.278,0,0,1,.18-2.892,3.732,3.732,0,0,1,2.965-1.029,5.621,5.621,0,0,1,2.957,1.193,11.435,11.435,0,0,1,3.643,5.424,14.362,14.362,0,0,1,.817,6.3,8.371,8.371,0,0,1-2.548,5.293,6.538,6.538,0,0,1-5.1,1.911c-1.74-.147-3.439-1.47-3.545-3.071a2.535,2.535,0,0,1,.923-2.059,4.243,4.243,0,0,1,2.083-.98,6.044,6.044,0,0,1,4.215.948,8.4,8.4,0,0,1,2.7,2.9,10.342,10.342,0,0,1,1.005,6.282,18.787,18.787,0,0,1-1.005,4C152.227,62.533,152.031,62.99,152.055,63.007Z" fill="#fafafa"/>
      <path id="Path_66" data-name="Path 66" d="M30.225,62.247h22V0h-22Z" fill="#e0e0e0"/>
      <path id="Path_67" data-name="Path 67" d="M156.508,62.247h20.577V6.837H156.508Z" fill="#e0e0e0"/>
      <path id="Path_68" data-name="Path 68" d="M177.6,34.465a17.15,17.15,0,0,0,3.267,2.328,11.434,11.434,0,0,0,4.142,1.152,10.677,10.677,0,0,0,5.13-.9c1.74-.735,3.333-1.691,4.9-2.246a7.729,7.729,0,0,1,4.485-.408,4.742,4.742,0,0,1,2.6,1.568,1.949,1.949,0,0,1,.514,1c-.057,0-.212-.343-.694-.817a4.961,4.961,0,0,0-2.516-1.307,7.673,7.673,0,0,0-4.191.523c-1.536.564-3.1,1.519-4.9,2.287a10.855,10.855,0,0,1-5.432.89,11.1,11.1,0,0,1-4.289-1.332,9.543,9.543,0,0,1-2.4-1.838A2.83,2.83,0,0,1,177.6,34.465Z" fill="#fafafa"/>
      <path id="Path_69" data-name="Path 69" d="M177.15,39.954a17.583,17.583,0,0,0,3.268,2.32,11.315,11.315,0,0,0,4.141,1.152,10.714,10.714,0,0,0,5.139-.89c1.731-.743,3.324-1.7,4.9-2.255a7.753,7.753,0,0,1,4.493-.408,4.752,4.752,0,0,1,2.6,1.577,1.874,1.874,0,0,1,.507.988,10.392,10.392,0,0,0-.694-.817,4.772,4.772,0,0,0-2.508-1.307,7.581,7.581,0,0,0-4.191.515c-1.536.564-3.1,1.519-4.9,2.287a10.882,10.882,0,0,1-5.433.89,11.1,11.1,0,0,1-4.3-1.332,9.513,9.513,0,0,1-2.394-1.83A3.07,3.07,0,0,1,177.15,39.954Z" fill="#fafafa"/>
      <path id="Path_70" data-name="Path 70" d="M177.477,22.2c0-.172,5.669-.31,12.654-.31s12.653.139,12.653.31-5.661.31-12.653.31S177.477,22.375,177.477,22.2Z" fill="#fafafa"/>
      <path id="Path_71" data-name="Path 71" d="M168.164,15.758a3.047,3.047,0,0,0-1.8-.147,2.157,2.157,0,0,0-1.388,1.152,1.993,1.993,0,0,0,2.556,2.451,2.163,2.163,0,0,0,1.1-1.438,2.919,2.919,0,0,0-.221-1.781.917.917,0,0,1,.4.384,2.238,2.238,0,0,1,.253,1.487,2.414,2.414,0,1,1-2.794-2.7,2.271,2.271,0,0,1,1.5.2A.9.9,0,0,1,168.164,15.758Z" fill="#fafafa"/>
      <path id="Path_72" data-name="Path 72" d="M166.833,56.7c-.18,0-.319-7.769-.319-17.351S166.653,22,166.833,22s.31,7.769.31,17.351S167.005,56.7,166.833,56.7Z" fill="#fafafa"/>
      <path id="Path_73" data-name="Path 73" d="M223.917,61.928H10.971V74.084H223.917Z" fill="#ebebeb"/>
      <path id="Path_74" data-name="Path 74" d="M223.917,61.928H205.325V74.084h18.592Z" fill="#e0e0e0"/>
      <path id="Path_75" data-name="Path 75" d="M234.626,61.013l-1.037,83.658c-.18,14.23,2.451,35.167,24.972,34.415,19.483-2.115,24.646-20.553,24.8-33.835.073-6.3.147-11.543.2-12.2,0,0,21.321-1.732,23.118-22.791.874-10.179.956-31.287.817-50.386a39.359,39.359,0,0,0-36.515-38.941l-2.034-.155C246.912,20.447,234.332,38.957,234.626,61.013Z" fill="#ffbe9d"/>
      <path id="Path_76" data-name="Path 76" d="M283.558,133.038s-13.348-.188-26.851-10.113c0,0,5.571,15.881,26.737,15.521Z" fill="#eb996e"/>
      <path id="Path_77" data-name="Path 77" d="M271.484,68.5c-.425.425-2.851-1.536-6.38-1.634s-6.167,1.634-6.535,1.185c-.179-.2.253-.98,1.4-1.789a8.858,8.858,0,0,1,5.245-1.487,8.558,8.558,0,0,1,5.064,1.846C271.345,67.5,271.688,68.3,271.484,68.5Z" fill="#263238"/>
      <path id="Path_78" data-name="Path 78" d="M270.741,75.791a2.86,2.86,0,0,1-2.957,2.671,2.729,2.729,0,0,1-2.745-2.777,2.851,2.851,0,0,1,2.949-2.679,2.738,2.738,0,0,1,2.753,2.785Z" fill="#263238"/>
      <path id="Path_79" data-name="Path 79" d="M280.323,93.035c0-.188,2.034-.384,5.326-.564.817,0,1.634-.131,1.814-.686a4.644,4.644,0,0,0-.376-2.451L285.1,82.857c-2.745-9.215-4.665-16.771-4.289-16.877s2.892,7.278,5.637,16.493q.979,3.406,1.879,6.535a4.814,4.814,0,0,1,.2,3.267,2.117,2.117,0,0,1-1.454,1.111,5.477,5.477,0,0,1-1.414.09C282.357,93.354,280.323,93.223,280.323,93.035Z" fill="#263238"/>
      <path id="Path_80" data-name="Path 80" d="M269.981,55.23c-.343.817-3.169.188-6.535.368s-6.159.915-6.535.163c-.171-.359.351-1.078,1.5-1.781a11.12,11.12,0,0,1,9.983-.408C269.556,54.176,270.128,54.854,269.981,55.23Z" fill="#263238"/>
      <path id="Path_81" data-name="Path 81" d="M303.49,61.765c-.368.637-3.121-.074-6.462-.172s-6.1.319-6.453-.343c-.155-.319.392-.89,1.552-1.4a11.657,11.657,0,0,1,4.942-.817,12.046,12.046,0,0,1,4.9,1.209C303.122,60.842,303.653,61.463,303.49,61.765Z" fill="#263238"/>
      <path id="Path_82" data-name="Path 82" d="M235.206,76.73c-.343-.18-14.164-5.342-14.761,9.108S234.479,97.9,234.52,97.479,235.206,76.73,235.206,76.73Z" fill="#ffbe9d"/>
      <path id="Path_83" data-name="Path 83" d="M230.33,91.826c-.058-.049-.254.172-.687.343a2.54,2.54,0,0,1-1.887,0c-1.5-.629-2.687-3.1-2.646-5.718a8.308,8.308,0,0,1,.816-3.57,2.919,2.919,0,0,1,1.969-1.854,1.281,1.281,0,0,1,1.462.752c.172.409.074.694.147.719s.319-.229.229-.817a1.631,1.631,0,0,0-.531-.931,1.935,1.935,0,0,0-1.38-.425,3.555,3.555,0,0,0-2.721,2.132,8.618,8.618,0,0,0-1.037,3.994c0,2.908,1.356,5.718,3.415,6.388a2.7,2.7,0,0,0,2.32-.294C230.3,92.178,230.379,91.859,230.33,91.826Z" fill="#eb996e"/>
      <path id="Path_84" data-name="Path 84" d="M276.909,103.034c.163-.359-2.672-1.209-4.657-3.864a16.156,16.156,0,0,1-2-3.774c-.417-1.046-.743-1.707-.9-1.634s-.106.76.123,1.9a10.746,10.746,0,0,0,1.862,4.231,8.652,8.652,0,0,0,3.685,2.818C276.124,103.132,276.876,103.165,276.909,103.034Z" fill="#263238"/>
      <path id="Path_85" data-name="Path 85" d="M348.633,40.959a3.536,3.536,0,0,0-1.813-1.993c-1.813-.972-3.942-.817-5.972-.874a36.455,36.455,0,0,1-17.573-4.812,73.646,73.646,0,0,0-8.156-8.937c-7.087-6.535-12.913-11.061-18.941-13.25-7.793-2.826-20.843-3.97-29-2.05s-15.38,7.858-16.5,15.374c-4.557-3.431-11.409-3.431-16.946-1.43l-.145-.057c-6.2,1.985-9.706,7.858-11.528,13.577s-2.6,11.763-5.945,16.861c-.7,1.062-1.522,2.336-.906,3.447a2.543,2.543,0,0,0,1.174.919,2.865,2.865,0,0,0,1.545.151,8.034,8.034,0,0,0,2.882-1.176l-2.067,4.468a16.252,16.252,0,0,0,6.725-.4c1.314,5.31,2.881,11.379,4.4,14.982,2.583,0,4.948.163,6.542,1.454,2.167,1.756,3.136,5.057,6.734,3.807,1.813-.637,3.507-4.084,4.124-5.784A74.668,74.668,0,0,0,251.2,40.444a29.327,29.327,0,0,1,9.063-5.89l-.281.22c6.534-2.042,13.92-4.084,20.11-1.291,4.811,2.148,7.63,6.641,11.228,10.228a36.753,36.753,0,0,0,11.838,7.852A40.072,40.072,0,0,0,317.467,54.6c.344,5.922-.209,14.3.136,20.234l5.537-9.492v.041a23.706,23.706,0,0,0,1.2-2.1l.118-.212a35.564,35.564,0,0,1,1.813-3.374l.054.049c3.571,2.835,8.817-1.495,6.009-4.95a8.827,8.827,0,0,0-1.985-1.805,6.721,6.721,0,0,0,2.883,1.46,7.193,7.193,0,0,0,3.306-.006,5.131,5.131,0,0,0,2.666-1.723,4.3,4.3,0,0,0,.96-2.827,3.687,3.687,0,0,0-.828-1.883,4.282,4.282,0,0,0-1.764-1.254,16.03,16.03,0,0,0,8.337-1.634C347.573,44.218,349.186,42.821,348.633,40.959Z" transform="translate(-9.664)" fill="#263238"/>
      <path id="Path_86" data-name="Path 86" d="M246.163,26.835a15.851,15.851,0,0,0-1.588,1.936,17.527,17.527,0,0,0-2.463,6.993,34.787,34.787,0,0,0-.406,5.351c0,1.944.111,4.019.222,6.208.148,2.3.188,4.606.117,6.911a30.691,30.691,0,0,1-.356,3.643,9,9,0,0,1-1.121,3.537,2.464,2.464,0,0,1-1.021.891,1.837,1.837,0,0,1-1.22.106,3.464,3.464,0,0,1-2.013-1.511,13.2,13.2,0,0,1-1.533-5.351l.332.049a19.5,19.5,0,0,1-1.927,4.411,4.592,4.592,0,0,1-3.078,2.238,2.43,2.43,0,0,1-1.638-.384,3.264,3.264,0,0,1-1.115-1.454,4.66,4.66,0,0,1-.332-1.871,3.115,3.115,0,0,1,.5-1.634l.173.2a11.148,11.148,0,0,1-3.411,3.4,8.2,8.2,0,0,1-1.059.547,2.312,2.312,0,0,1-.375.122,1.416,1.416,0,0,1,.357-.2c.234-.131.585-.319,1.022-.613a11.694,11.694,0,0,0,3.293-3.447l.167.2a3.3,3.3,0,0,0-.426,1.542,3.419,3.419,0,0,0,.321,1.586,2.823,2.823,0,0,0,1.01,1.282,2.183,2.183,0,0,0,1.477.327,4.3,4.3,0,0,0,2.869-2.124,19.435,19.435,0,0,0,1.846-4.321l.228-.67.1.727a12.952,12.952,0,0,0,1.459,5.122,3.152,3.152,0,0,0,1.8,1.348,1.546,1.546,0,0,0,1.036-.072,2.059,2.059,0,0,0,.872-.745,8.7,8.7,0,0,0,1.059-3.366,31.83,31.83,0,0,0,.351-3.562c.072-2.285.041-4.574-.092-6.854-.1-2.189-.21-4.281-.191-6.241a34.6,34.6,0,0,1,.456-5.424,17.337,17.337,0,0,1,2.586-7.05A7.271,7.271,0,0,1,246.163,26.835Z" fill="#480355"/>
      <path id="Path_87" data-name="Path 87" d="M318.954,47.339l-.164.139-.531.384a6.783,6.783,0,0,1-.89.572,10.819,10.819,0,0,1-1.283.678,18.623,18.623,0,0,1-8.986,1.634,23.827,23.827,0,0,1-12.71-4.689,41.253,41.253,0,0,1-10.922-12.6c-1.536-2.549-2.786-5.163-4.158-7.581a28.282,28.282,0,0,0-4.713-6.413,14.392,14.392,0,0,0-6.07-3.684,10.361,10.361,0,0,0-3.2-.368,11.543,11.543,0,0,0-2.925.564,12.257,12.257,0,0,0-6.772,5.718,14.427,14.427,0,0,0-1.086,3.161.546.546,0,0,1,0-.221,4.978,4.978,0,0,1,.1-.645,10.523,10.523,0,0,1,.817-2.377,12,12,0,0,1,2.361-3.2,12.339,12.339,0,0,1,4.468-2.769,11.432,11.432,0,0,1,3.023-.613,10.677,10.677,0,0,1,3.332.351,14.7,14.7,0,0,1,6.274,3.75,28.115,28.115,0,0,1,4.812,6.535c1.388,2.451,2.638,5.04,4.158,7.573a41.427,41.427,0,0,0,10.766,12.474,23.74,23.74,0,0,0,12.441,4.681,18.945,18.945,0,0,0,8.929-1.462A29.515,29.515,0,0,0,318.954,47.339Z" fill="#480355"/>
      <path id="Path_88" data-name="Path 88" d="M320.873,38.075a3.1,3.1,0,0,1-.759.531,17.073,17.073,0,0,1-2.23,1.136,22.338,22.338,0,0,1-3.546,1.16,22.874,22.874,0,0,1-9.092.294,21.692,21.692,0,0,1-3.61-.939,16.191,16.191,0,0,1-2.3-.988,3.135,3.135,0,0,1-.817-.474c.041-.082,1.2.515,3.2,1.136a25.1,25.1,0,0,0,3.57.817,26,26,0,0,0,4.477.262,27.089,27.089,0,0,0,4.444-.547,24.372,24.372,0,0,0,3.512-1.046C319.7,38.671,320.824,37.993,320.873,38.075Z" fill="#480355"/>
      <path id="Path_89" data-name="Path 89" d="M303.645,69.819c-.417.425-2.851-1.528-6.38-1.634s-6.159,1.634-6.535,1.185c-.188-.2.253-.98,1.4-1.789a8.847,8.847,0,0,1,5.253-1.487,8.463,8.463,0,0,1,5.056,1.838C303.506,68.831,303.857,69.632,303.645,69.819Z" fill="#263238"/>
      <path id="Path_90" data-name="Path 90" d="M300.051,76.812a2.867,2.867,0,0,1-2.957,2.679,2.737,2.737,0,0,1-2.745-2.785,2.852,2.852,0,0,1,2.949-2.671,2.729,2.729,0,0,1,2.753,2.777Z" fill="#263238"/>
      <path id="Path_91" data-name="Path 91" d="M431.66,153.836c0-6.118-5.849-6.118-5.849-6.118-2.23-2.925-4.738-1.863-4.738-1.863l-9.476,6.388c-1.389,2.394-10.62,11.437-10.62,11.437-2.508-1.863-2.508-5.588-5.514-10.1s-9.8-3.995-9.8-3.995,5.293,11.976,5.849,19.426-4.085,28.232-4.085,28.232l26.835,7.548s1.691-11.437,4.689-12.327c3.61-1.1,5.62-6.429,5.62-6.429,3.9-7.908,11.82-19.393,12.931-25.25S431.66,153.836,431.66,153.836Z" fill="#ffbe9d"/>
      <path id="Path_92" data-name="Path 92" d="M232.6,140.6c17.057,10.717,34.236,14.7,51.636,7.809l26.14,6.682,25.741,171.947-150.9,1.307,7.434-39.929,18.706-143.5Z" fill="#480355"/>
      <path id="Path_93" data-name="Path 93" d="M310.393,155.094s20.349,8.447,28.117,23.249,20.243,56.365,20.243,56.365l22.987-42.225,42.674,10.906s-31.761,87.6-39.733,95.576c-8.733,8.749-32.521,17.514-44.153,10.717S326.51,277.1,326.51,277.1Z" fill="#480355"/>
      <path id="Path_94" data-name="Path 94" d="M311.8,227.013c-.115,0-.213-7.638-.213-17.056s.1-17.057.213-17.057.212,7.63.212,17.057S311.937,227.013,311.8,227.013Z" fill="#263238"/>
      <path id="Path_95" data-name="Path 95" d="M319.762,164.922a25.43,25.43,0,0,1-.988,2.81c-.646,1.731-1.495,4.125-2.328,6.8s-1.479,5.147-1.928,6.936a28.734,28.734,0,0,1-.768,2.883,2.811,2.811,0,0,1,.073-.817c.082-.514.213-1.249.4-2.156.375-1.806.988-4.289,1.821-6.985s1.732-5.089,2.451-6.788c.359-.817.662-1.536.89-2A2.775,2.775,0,0,1,319.762,164.922Z" fill="#263238"/>
      <path id="Path_96" data-name="Path 96" d="M208.617,209.311l4.721-64.787s-35.518,3.267-47.273,28.354c-9.9,21.117-37.242,84.646-40.175,93.338-8.585,25.5,4.828,60.572,60.132,58.538l6.306-34.669Z" fill="#480355"/>
      <path id="Path_97" data-name="Path 97" d="M168.842,297.306a5.853,5.853,0,0,1,.294-.62l.9-1.74,3.39-6.372,1.127-2.116a6.4,6.4,0,0,1,1.634-2.083,4.383,4.383,0,0,1,2.737-.817,12.252,12.252,0,0,1,2.94.474,30.339,30.339,0,0,1,5.907,2.279,16.151,16.151,0,0,1,2.851,1.822l.326.286a.973.973,0,0,1,.278.441,3.519,3.519,0,0,1,.18.89,12.71,12.71,0,0,1,.041,1.756q-.165,3.4-.67,6.781c-.294,2.173-.629,4.264-.964,6.249-.67,3.978-1.34,7.548-1.912,10.538s-1.045,5.375-1.388,7.082c-.156.817-.286,1.454-.376,1.928a5.483,5.483,0,0,1-.147.67,3.85,3.85,0,0,1,.065-.686c.057-.442.155-1.1.294-1.936.311-1.724.735-4.142,1.258-7.107s1.177-6.576,1.822-10.555c.318-1.985.645-4.084.939-6.241s.572-4.427.654-6.731a13.138,13.138,0,0,0,0-1.707,3.39,3.39,0,0,0-.155-.817.631.631,0,0,0-.172-.278l-.31-.269a14.743,14.743,0,0,0-2.778-1.773,29.835,29.835,0,0,0-5.849-2.238,11.785,11.785,0,0,0-2.851-.482,4.086,4.086,0,0,0-2.516.694,5.888,5.888,0,0,0-1.544,1.961c-.408.727-.816,1.421-1.16,2.091l-3.5,6.315c-.408.71-.727,1.282-.972,1.7A3.393,3.393,0,0,1,168.842,297.306Z" fill="#263238"/>
      <path id="Path_98" data-name="Path 98" d="M143.159,266.534a1.268,1.268,0,0,1,.417,0l1.193.049c1.037.049,2.532.139,4.378.311a56.4,56.4,0,0,1,6.454.939,33.177,33.177,0,0,1,7.589,2.508,29.7,29.7,0,0,1,6.665,4.4,17.744,17.744,0,0,1,4.085,5.122,11.322,11.322,0,0,1,1.233,4.223,7.769,7.769,0,0,1,0,1.2,1.325,1.325,0,0,1,0,.417c-.041,0,0-.58-.147-1.634a11.983,11.983,0,0,0-1.331-4.085,18.091,18.091,0,0,0-4.085-4.966,30.55,30.55,0,0,0-6.6-4.314,34.3,34.3,0,0,0-7.483-2.516,63.757,63.757,0,0,0-6.4-1.021c-1.838-.2-3.325-.343-4.354-.441l-1.185-.122A1.5,1.5,0,0,1,143.159,266.534Z" fill="#263238"/>
      <path id="Path_99" data-name="Path 99" d="M181.169,263.258a15.52,15.52,0,0,1-.89,2.549c-.605,1.552-1.511,3.668-2.549,5.988s-1.936,4.3-2.671,5.922a18.415,18.415,0,0,1-1.16,2.451,16.274,16.274,0,0,1,.882-2.549c.613-1.552,1.52-3.667,2.557-5.987s1.936-4.289,2.671-5.923A19.179,19.179,0,0,1,181.169,263.258Z" fill="#263238"/>
      <path id="Path_100" data-name="Path 100" d="M200.84,212.268c-.123,0-.213-4.084-.213-9.173s.09-9.174.213-9.174.212,4.084.212,9.174S200.938,212.268,200.84,212.268Z" fill="#263238"/>
      <g id="Group_1" data-name="Group 1" opacity="0.3">
        <path id="Path_101" data-name="Path 101" d="M175.124,285.658c-9.337,3.267-15.659,11.738-18.208,21.3a3.3,3.3,0,0,0,.229,2.981,2.35,2.35,0,0,0,2.932.237,6.766,6.766,0,0,0,2.075-2.393C166.653,300.574,171.048,293.892,175.124,285.658Z" opacity="0.3"/>
      </g>
      <g id="Group_2" data-name="Group 2" opacity="0.3">
        <path id="Path_102" data-name="Path 102" d="M163.541,267.2a37.643,37.643,0,0,0-16.085-4.215,23.852,23.852,0,0,0-6.535.572c-2.916.612-6.274,2.083-6.911,4.174,6.707-2.1,16.583-.711,23.445.817a25.184,25.184,0,0,1,16.428,11.6A23.4,23.4,0,0,0,163.541,267.2Z" opacity="0.3"/>
      </g>
      <path id="Path_103" data-name="Path 103" d="M195.6,184.682a6.407,6.407,0,0,1-.326-1.029c-.172-.662-.458-1.634-.817-2.786a44.858,44.858,0,0,0-9.656-16.4c-.817-.9-1.527-1.634-2.026-2.091a6.2,6.2,0,0,1-.735-.776,4.9,4.9,0,0,1,.817.653c.531.441,1.266,1.128,2.132,2.01a40.753,40.753,0,0,1,5.849,7.679,40.3,40.3,0,0,1,3.872,8.838,28.161,28.161,0,0,1,.719,2.843A4.964,4.964,0,0,1,195.6,184.682Z" fill="#263238"/>
      <path id="Path_104" data-name="Path 104" d="M208.641,328.324l-39.578-95.486c-1.806-4.354.457-7.892,5.065-7.892h7.923c3.268,0,5.465-1.789,5.678-4.582l.261-3.513c.212-2.794,2.451-4.583,5.718-4.583h37.83a13.237,13.237,0,0,1,8.766,3.881l3.071,2.973a13.228,13.228,0,0,0,8.757,3.872h48.2c4.6,0,9.753,3.537,11.51,7.891l39.21,97.439Z" fill="#c98bb9"/>
      <g id="Group_3" data-name="Group 3" opacity="0.3">
        <path id="Path_105" data-name="Path 105" d="M215.9,328.592l-46.725-95.706c-2.132-4.364.54-7.91,5.98-7.91h9.354c3.858,0,6.452-1.793,6.7-4.593l.308-3.521c.25-2.8,2.894-4.594,6.751-4.594h44.661a17.029,17.029,0,0,1,10.349,3.89l3.625,2.98a17.022,17.022,0,0,0,10.339,3.881h56.9c5.429,0,11.514,3.545,13.588,7.909l46.29,97.664Z" transform="translate(0)" fill="#c98bb9" opacity="0.3"/>
      </g>
      <path id="Path_106" data-name="Path 106" d="M202.1,295.893,187.173,238.18c-.98-3.8,1.5-7.6,4.967-7.6h117a5.332,5.332,0,0,1,4.983,4.3l21.729,86.867c.956,3.815-.572,6.1-4.035,6.054l-117.722.04a5.349,5.349,0,0,1-4.9-4.264Z" fill="#e0e0e0"/>
      <path id="Path_107" data-name="Path 107" d="M210.185,325.685,203.829,234.8a5.571,5.571,0,0,1,5.555-5.963H330.61v96.85Z" fill="#ebebeb"/>
      <path id="Path_108" data-name="Path 108" d="M208.829,327.793,223.255,234.1a6.708,6.708,0,0,1,6.584-5.237h122.64a6.633,6.633,0,0,1,6.192,9.231l-26.484,85.774Z" fill="#fafafa"/>
      <path id="Path_109" data-name="Path 109" d="M208.641,328.283l29.776-87.75a8.8,8.8,0,0,1,8.267-6.1h126.4a6.161,6.161,0,0,1,5.644,8.169l-27.659,85.725Z" fill="#c98bb9"/>
      <g id="Group_4" data-name="Group 4" opacity="0.3">
        <path id="Path_110" data-name="Path 110" d="M269.769,313.6s-4.771.213-6.976.368a65.041,65.041,0,0,1-30.715-5.449c-2.974-1.331-6.127-3.2-7.025-6.331-1-3.5,1.266-7.148,4.035-9.525s6.127-4.084,8.536-6.813,3.538-7.188,1.169-9.957l-.654.473c-1.707,4.338-6.47,6.429-10.415,8.9a36.758,36.758,0,0,0-15.439,20.178c-1.389,4.541-1.757,9.8,1,13.715,1.953,2.745,5.155,4.305,8.316,5.473,9.558,3.554,19.785,3.684,29.988,3.693,3.219,0,13.111-.131,13.111-.131,3.112-.817,4.134-2.451,6-5.089C272.424,320.694,272.048,315.482,269.769,313.6Z" opacity="0.3"/>
      </g>
      <path id="Path_111" data-name="Path 111" d="M269.769,313.6l-32.986-4.958-12.8-7.352a5.78,5.78,0,0,1-2.941-4.648v-.115a5.859,5.859,0,0,1,3.627-5.579c4.085-1.708,10.5-3.987,13.242-8.79,3.938-6.911,0-8.34,0-8.34l-27.537,11.028-19.491,13.266-3.929,22.08,27.194,8.88s30.306,1.715,38.663.776,8.365-4.836,8.365-4.836c1.552-.482,4.7-3.268,4.689-5.808,4.084-3.807,3.9-5.6,3.9-5.6" fill="#ffbe9d"/>
      <path id="Path_112" data-name="Path 112" d="M227.593,323.112a6.885,6.885,0,0,1,1.356.261c.866.213,2.116.482,3.668.817a79.5,79.5,0,0,0,12.253,1.471,80.794,80.794,0,0,0,12.343-.507c1.569-.188,2.843-.368,3.717-.506a6.091,6.091,0,0,1,1.372-.156,6.473,6.473,0,0,1-1.331.368c-.866.2-2.132.449-3.709.686a67.056,67.056,0,0,1-24.743-.964c-1.552-.359-2.794-.7-3.644-.972A6.224,6.224,0,0,1,227.593,323.112Z" fill="#eb996e"/>
      <path id="Path_113" data-name="Path 113" d="M230.607,318.014a7.128,7.128,0,0,1,1.373.262c.874.212,2.148.49,3.733.817a79.212,79.212,0,0,0,12.457,1.38,85.443,85.443,0,0,0,12.54-.572c1.592-.2,2.883-.375,3.774-.522a6.231,6.231,0,0,1,1.388-.156,7.408,7.408,0,0,1-1.348.368c-.882.212-2.164.458-3.765.7a72.225,72.225,0,0,1-12.6.743,67.588,67.588,0,0,1-12.523-1.552c-1.577-.36-2.843-.694-3.709-.972A6.184,6.184,0,0,1,230.607,318.014Z" fill="#eb996e"/>
      <path id="Path_114" data-name="Path 114" d="M425.076,196.053,366.489,207.62a7.468,7.468,0,0,1-8.774-5.881L341.7,120.646a7.475,7.475,0,0,1,5.882-8.773l37.16-7.352,34.611,23.967,11.608,58.775a7.466,7.466,0,0,1-5.881,8.79Z" fill="#ebebeb"/>
      <path id="Path_115" data-name="Path 115" d="M384.738,104.529l4.5,22.824a6.952,6.952,0,0,0,8.169,5.473l21.941-4.33Z" fill="#f5f5f5"/>
      <path id="Path_116" data-name="Path 116" d="M389.933,129.3s.817,5.6,7.466,6.167h.76c2.965-.057,22.489-.424,22.407-.816s-1.217-6.135-1.217-6.135l-21.941,4.329S391.894,133.716,389.933,129.3Z" fill="#e0e0e0"/>
      <path id="Path_117" data-name="Path 117" d="M425.076,196.053l.318-.1a6.781,6.781,0,0,0,.923-.294,7.572,7.572,0,0,0,3.023-2.206,7.423,7.423,0,0,0,1.633-5.718c-.424-2.369-1.012-5.1-1.633-8.169l-10.162-51.055.073.114L384.64,104.7h.155L363.36,108.94l-11.216,2.214-2.843.564a18.978,18.978,0,0,0-2.8.661,7.247,7.247,0,0,0-4.648,7.687c.212,1.315.515,2.655.768,3.978.523,2.655,1.037,5.294,1.56,7.916q1.544,7.858,3.047,15.464c2,10.137,3.929,19.915,5.767,29.236q1.372,6.984,2.68,13.618.652,3.308,1.282,6.535c.205,1.07.417,2.132.621,3.186a17.256,17.256,0,0,0,.752,3.063,7.309,7.309,0,0,0,7.172,4.5c.964-.073,1.944-.327,2.9-.5l11.061-2.173,33.386-6.535,9.059-1.74,2.361-.441.817-.139-.817.179-2.353.482-9.067,1.838-33.354,6.658-11.06,2.2q-1.458.325-2.941.506a7.671,7.671,0,0,1-7.524-4.7,17.651,17.651,0,0,1-.776-3.137c-.2-1.046-.416-2.108-.629-3.178q-.637-3.21-1.291-6.535-1.307-6.616-2.7-13.609c-1.838-9.313-3.774-19.091-5.784-29.228q-1.51-7.607-3.055-15.464c-.523-2.622-1.038-5.261-1.569-7.916-.245-1.331-.547-2.638-.759-4.011a7.544,7.544,0,0,1,.621-4.084,7.691,7.691,0,0,1,4.3-4.027,20.154,20.154,0,0,1,2.868-.678l2.842-.564,11.216-2.214,21.452-4.248h.081l.074.049,34.6,23.984h.058v.074c4.158,21.239,7.605,38.8,10.006,51.08.589,3.071,1.152,5.792,1.569,8.169a7.474,7.474,0,0,1-4.771,7.972,5.477,5.477,0,0,1-.931.278Z" fill="#263238"/>
      <path id="Path_118" data-name="Path 118" d="M419.349,128.5a2.807,2.807,0,0,1-.555.156L417.16,129l-5.931,1.242-8.806,1.789-5.211,1.029a7.183,7.183,0,0,1-7.459-3.619,8.261,8.261,0,0,1-.874-2.728c-.351-1.806-.694-3.546-1.013-5.2-.637-3.317-1.217-6.3-1.7-8.831s-.817-4.5-1.111-5.955c-.114-.669-.2-1.209-.278-1.633a2.687,2.687,0,0,1-.065-.572,3.574,3.574,0,0,1,.147.555c.1.409.213.948.36,1.634.3,1.446.727,3.464,1.241,5.931s1.119,5.505,1.789,8.806c.327,1.633.678,3.406,1.038,5.211a8.052,8.052,0,0,0,.817,2.6,6.755,6.755,0,0,0,7.025,3.407l5.2-1,8.823-1.7,6-1.152,1.633-.286A2.807,2.807,0,0,1,419.349,128.5Z" fill="#263238"/>
      <path id="Path_119" data-name="Path 119" d="M387.654,125.115c0,.114-6.886,1.576-15.415,3.267s-15.48,2.965-15.521,2.843,6.87-1.569,15.415-3.268S387.629,125,387.654,125.115Z" fill="#263238"/>
      <path id="Path_120" data-name="Path 120" d="M404.564,133.6c0,.114-10.162,2.222-22.742,4.713s-22.808,4.4-22.832,4.289,10.162-2.222,22.75-4.705S404.539,133.488,404.564,133.6Z" fill="#263238"/>
      <path id="Path_121" data-name="Path 121" d="M406.81,144.989c0,.115-10.162,2.222-22.742,4.706s-22.808,4.411-22.832,4.3,10.162-2.222,22.75-4.714S406.794,144.875,406.81,144.989Z" fill="#263238"/>
      <path id="Path_122" data-name="Path 122" d="M363.482,165.379c0-.123,10.162-2.23,22.751-4.713s22.807-4.412,22.832-4.289-10.163,2.222-22.751,4.705S363.507,165.493,363.482,165.379Z" fill="#263238"/>
      <path id="Path_123" data-name="Path 123" d="M411.311,167.756c0,.114-10.162,2.23-22.75,4.714s-22.808,4.4-22.824,4.288,10.154-2.222,22.742-4.705S411.287,167.642,411.311,167.756Z" fill="#263238"/>
      <path id="Path_124" data-name="Path 124" d="M413.557,179.143c0,.115-10.162,2.222-22.742,4.706s-22.807,4.411-22.832,4.3,10.162-2.222,22.751-4.714S413.533,179.029,413.557,179.143Z" fill="#263238"/>
      <path id="Path_125" data-name="Path 125" d="M384.856,164.359l-43,8.49a3.446,3.446,0,0,0-2.714,4.049l3.08,15.6a3.446,3.446,0,0,0,4.049,2.714l43-8.49a3.447,3.447,0,0,0,2.714-4.05l-3.079-15.6A3.447,3.447,0,0,0,384.856,164.359Z" fill="#c98bb9"/>
      <path id="Path_126" data-name="Path 126" d="M352.119,178.367l3.84-.759c2.761-.548,4.983.743,5.489,3.267s-1.062,4.6-3.823,5.147l-3.839.759Zm5.089,6.1a2.672,2.672,0,1,0-1.029-5.237l-1.789.352,1.038,5.236Z" fill="#fff"/>
      <path id="Path_127" data-name="Path 127" d="M362.388,180.728a4.72,4.72,0,1,1,5.489,3.456,4.459,4.459,0,0,1-5.489-3.456Zm7.262-1.437a2.7,2.7,0,1,0-2.108,3.226,2.623,2.623,0,0,0,2.108-3.226Z" fill="#fff"/>
      <path id="Path_128" data-name="Path 128" d="M372.574,178.719a4.738,4.738,0,0,1,7.491-4.469l-1.021,1.4a2.794,2.794,0,0,0-2.32-.571,2.756,2.756,0,0,0-2.173,3.234,2.754,2.754,0,0,0,3.235,2.173,2.72,2.72,0,0,0,1.928-1.421l1.487.915a4.739,4.739,0,0,1-8.627-1.266Z" fill="#fff"/>
      <path id="Path_129" data-name="Path 129" d="M415.861,135.71s4.33-5.482,7.663-2.451,2.369,4.64-.817,9.484c0,0,7.074-.376,4.8,6.9,0,0,7.05-.817,6.372,5.162,0,0,5.326,5.2,2.557,8.561s-12.809,9.419-15.342,8.381-2.556-4.639-2.556-4.639-3.015-1.356-3.848-2.941.6-3.823.6-3.823-2.54-2.6-3.169-3.317.343-4.084.343-4.084L416.547,149s-5.587,2.451-6.755,1.5-2.451-1.723-1.234-3.414a52.946,52.946,0,0,1,5.718-5.473Z" fill="#ffbe9d"/>
      <path id="Path_130" data-name="Path 130" d="M419.12,167.552a19.669,19.669,0,0,1,1.83-2.222,21.305,21.305,0,0,1,5.171-4.73,50.563,50.563,0,0,0,5.8-3.733,26.353,26.353,0,0,0,1.977-2.034,5.182,5.182,0,0,1-1.634,2.393,36.016,36.016,0,0,1-5.718,3.946,26.036,26.036,0,0,0-5.179,4.477A9.132,9.132,0,0,1,419.12,167.552Z" fill="#eb996e"/>
      <path id="Path_131" data-name="Path 131" d="M415.208,161.425c-.131-.13,2.45-2.941,5.8-6.265,1.674-1.634,3.112-3.268,4.345-4.207a5.186,5.186,0,0,1,2.173-1.283c.049.09-.759.58-1.862,1.634s-2.492,2.663-4.183,4.321C418.132,158.966,415.338,161.556,415.208,161.425Z" fill="#eb996e"/>
      <path id="Path_132" data-name="Path 132" d="M416.539,149.017c-.131-.164,1.47-1.438,3.268-3.137s2.7-3.488,2.867-3.423-.5,2.14-2.394,3.9S416.629,149.147,416.539,149.017Z" fill="#eb996e"/>
      <path id="Path_133" data-name="Path 133" d="M415.861,135.685a1.387,1.387,0,0,1-.065.409c-.074.3-.172.678-.286,1.151-.27,1.062-.654,2.533-1.136,4.412v.04c-.816.719-1.731,1.544-2.72,2.451a23.972,23.972,0,0,0-3.022,3.219,1.634,1.634,0,0,0-.3,1.021,1.586,1.586,0,0,0,.548.955,10.151,10.151,0,0,0,.988.817,1.475,1.475,0,0,0,1.128.221,21.378,21.378,0,0,0,5.489-1.7l1.307-.539-1.062,1.094-4.044,3.954.066-.09a5.177,5.177,0,0,0-.213,4.085,11.444,11.444,0,0,0,3.2,3.267l.277.2-.228.262c-.883,1.045-1.5,2.695-.352,3.717a15.275,15.275,0,0,0,3.832,2.622l-.474.261v-.106c.09.1-.188-.237.2.286.915-.425.261-.172.465-.245v.482a6.116,6.116,0,0,0,.066.661,4.8,4.8,0,0,0,.351,1.283,3.266,3.266,0,0,0,.719,1.078,2,2,0,0,0,1.046.605,6.42,6.42,0,0,0,2.671-.531,22.712,22.712,0,0,0,2.655-1.193,44.437,44.437,0,0,0,4.729-2.859,27.152,27.152,0,0,0,4.134-3.39,3.336,3.336,0,0,0,1.1-2.1,5.173,5.173,0,0,0-.433-2.386,13.686,13.686,0,0,0-2.786-4.084l-.1-.106v-.156a5.106,5.106,0,0,0-.237-2.32,3.433,3.433,0,0,0-1.429-1.682,7.5,7.5,0,0,0-4.363-.817h-.4l.1-.4c.106-.441.229-.882.319-1.315a7.06,7.06,0,0,0,.106-1.3,3.637,3.637,0,0,0-.735-2.3,5.293,5.293,0,0,0-4.207-1.634h-.474l.253-.384a39.251,39.251,0,0,0,2.279-3.717,5.51,5.51,0,0,0,.58-1.838,3.007,3.007,0,0,0-.367-1.715,7.692,7.692,0,0,0-2.222-2.451,3.269,3.269,0,0,0-2.647-.269,8.777,8.777,0,0,0-3.268,2.058c-.334.3-.571.556-.743.719s-.237.253-.253.245a1.433,1.433,0,0,1,.2-.286,8.436,8.436,0,0,1,.686-.776,10.435,10.435,0,0,1,1.275-1.119,6.576,6.576,0,0,1,2.042-1.1,3.515,3.515,0,0,1,2.892.245l.678.49.612.589a7.133,7.133,0,0,1,1.111,1.437,3.442,3.442,0,0,1,.433,1.936,5.9,5.9,0,0,1-.6,2,38.244,38.244,0,0,1-2.263,3.79l-.22-.384a7.513,7.513,0,0,1,2.45.351,4.536,4.536,0,0,1,2.2,1.463,4.088,4.088,0,0,1,.866,2.614,7.514,7.514,0,0,1-.1,1.413c-.09.465-.221.923-.335,1.389l-.3-.376a8.163,8.163,0,0,1,4.738.89,4.037,4.037,0,0,1,1.683,1.977,5.715,5.715,0,0,1,.294,2.622l-.1-.261a13.959,13.959,0,0,1,2.941,4.248,5.849,5.849,0,0,1,.49,2.687,4.209,4.209,0,0,1-.392,1.389,6.362,6.362,0,0,1-.817,1.127,28.63,28.63,0,0,1-4.231,3.5,44.1,44.1,0,0,1-4.8,2.9,23.9,23.9,0,0,1-2.728,1.226,6.928,6.928,0,0,1-3.006.563,3.336,3.336,0,0,1-2.279-2.083,5.711,5.711,0,0,1-.4-1.446c0-.245-.057-.49-.065-.735v-.6c.2-.074-.449.171.457-.253.384.514.115.187.2.285v.188l-.049.49-.432-.228a15.516,15.516,0,0,1-4.02-2.778,3.282,3.282,0,0,1-.686-1.1,2.741,2.741,0,0,1-.057-1.307,5,5,0,0,1,1.111-2.157l.049.466a12,12,0,0,1-3.382-3.5,4.277,4.277,0,0,1-.367-2.4,7.409,7.409,0,0,1,.6-2.239v-.049h.041l4.084-3.921.294.45a22.083,22.083,0,0,1-5.661,1.691,1.986,1.986,0,0,1-1.462-.344,12.4,12.4,0,0,1-1.029-.874,2.057,2.057,0,0,1-.662-1.233,2.117,2.117,0,0,1,.392-1.3,23.641,23.641,0,0,1,3.129-3.268c1.013-.923,1.952-1.731,2.785-2.45l-.04.073c.539-1.862.972-3.333,1.274-4.386l.351-1.128A2.259,2.259,0,0,1,415.861,135.685Z" fill="#eb996e"/>
      <path id="Path_134" data-name="Path 134" d="M118.334,179.756H67.949a6.306,6.306,0,0,1-6.306-6.306V103.679a6.306,6.306,0,0,1,6.306-6.306H99.922l24.743,25.5V173.45a6.306,6.306,0,0,1-6.331,6.306Z" fill="#ebebeb"/>
      <path id="Path_135" data-name="Path 135" d="M99.922,97.373v19.6a5.866,5.866,0,0,0,5.865,5.866h18.878Z" fill="#f5f5f5"/>
      <path id="Path_136" data-name="Path 136" d="M100.175,118.735s-.245,4.762,5.171,6.322a5.494,5.494,0,0,0,.621.147c2.45.433,18.7,3.325,18.7,2.949v-5.277H105.787S101.073,122.721,100.175,118.735Z" fill="#e0e0e0"/>
      <path id="Path_137" data-name="Path 137" d="M118.334,179.756a6.726,6.726,0,0,0,1.087-.131,6.327,6.327,0,0,0,2.859-1.331,6.22,6.22,0,0,0,2.263-4.452v-7.025c0-10.563-.041-25.675-.074-43.941l.049.123L99.758,97.52l.147.057H69.378a16.942,16.942,0,0,0-2.451.09,6.11,6.11,0,0,0-3.954,2.451,5.944,5.944,0,0,0-1.119,3.1v68.749a14.217,14.217,0,0,0,.123,2.655,6.142,6.142,0,0,0,5.179,4.9c.817.1,1.634.049,2.451.066h9.517l28.714.073,7.81.041h-7.81l-28.714.066H69.615a24.317,24.317,0,0,1-2.532-.066,6.309,6.309,0,0,1-2.451-.858,6.531,6.531,0,0,1-3.031-4.28,15.242,15.242,0,0,1-.131-2.72V103.214A6.437,6.437,0,0,1,62.663,99.9a6.536,6.536,0,0,1,4.24-2.639,17.163,17.163,0,0,1,2.451-.1H99.979l.065.065,24.719,25.52.057.057v.065c0,18.266-.057,33.378-.081,43.941,0,2.638,0,4.983-.041,7.041a6.371,6.371,0,0,1-2.345,4.517,6.286,6.286,0,0,1-2.924,1.308,5.452,5.452,0,0,1-.817.073Z" fill="#263238"/>
      <path id="Path_138" data-name="Path 138" d="M124.665,122.876a1.924,1.924,0,0,1-.49.049h-1.389l-5.113.074-7.581.041h-4.485a6.069,6.069,0,0,1-4.387-2.051,6.216,6.216,0,0,1-1.233-2.189,7.183,7.183,0,0,1-.278-2.4v-4.484c0-2.843,0-5.408.041-7.581s.049-3.848.074-5.114V97.83a1.966,1.966,0,0,1,.049-.49,3.368,3.368,0,0,1,0,.49c0,.36,0,.817.041,1.389,0,1.266.041,3,.065,5.114s0,4.738.049,7.581V116.4a6.719,6.719,0,0,0,.261,2.28,5.757,5.757,0,0,0,1.152,2.025,5.669,5.669,0,0,0,4.084,1.92H110l7.581.049,5.113.065,1.389.041A3.446,3.446,0,0,1,124.665,122.876Z" fill="#263238"/>
      <path id="Path_139" data-name="Path 139" d="M98.966,114.928c0,.114-5.955.212-13.3.212s-13.291-.1-13.291-.212,5.947-.212,13.291-.212S98.966,114.781,98.966,114.928Z" fill="#263238"/>
      <path id="Path_140" data-name="Path 140" d="M111.587,124.731c0,.122-8.782.212-19.605.212s-19.605-.09-19.605-.212,8.773-.213,19.605-.213S111.587,124.575,111.587,124.731Z" fill="#263238"/>
      <path id="Path_141" data-name="Path 141" d="M111.587,134.484c0,.123-8.782.213-19.605.213s-19.605-.09-19.605-.213,8.773-.212,19.605-.212S111.587,134.37,111.587,134.484Z" fill="#263238"/>
      <path id="Path_142" data-name="Path 142" d="M111.587,144.279c0,.122-8.782.212-19.605.212s-19.605-.09-19.605-.212,8.773-.213,19.605-.213S111.587,144.164,111.587,144.279Z" fill="#263238"/>
      <path id="Path_143" data-name="Path 143" d="M111.587,154.073c0,.123-8.782.213-19.605.213s-19.605-.09-19.605-.213,8.773-.212,19.605-.212S111.587,153.959,111.587,154.073Z" fill="#263238"/>
      <path id="Path_144" data-name="Path 144" d="M111.587,163.868c0,.122-8.782.212-19.605.212s-19.605-.09-19.605-.212,8.773-.213,19.605-.213S111.587,163.753,111.587,163.868Z" fill="#263238"/>
      <path id="Path_145" data-name="Path 145" d="M89.71,146.917H53.792a3.448,3.448,0,0,0-3.447,3.448v12.343a3.447,3.447,0,0,0,3.447,3.447H89.71a3.447,3.447,0,0,0,3.447-3.447V150.365A3.448,3.448,0,0,0,89.71,146.917Z" fill="#c98bb9"/>
      <path id="Path_146" data-name="Path 146" d="M67.107,155.821c0,1.634-1.217,2.623-3.161,2.623H62.484v2.009H60.8v-7.27h3.145C65.89,153.183,67.107,154.188,67.107,155.821Zm-1.707,0c0-.816-.515-1.266-1.544-1.266H62.484v2.524h1.372C64.885,157.079,65.4,156.589,65.4,155.821Z" fill="#fff"/>
      <path id="Path_147" data-name="Path 147" d="M68.3,153.183h3.268c2.377,0,4.011,1.429,4.011,3.635s-1.634,3.635-4.011,3.635H68.3Zm3.219,5.89a2.255,2.255,0,0,0,0-4.51H69.983v4.477Z" fill="#fff"/>
      <path id="Path_148" data-name="Path 148" d="M78.552,154.531v1.919h3.366v1.356H78.552v2.647H76.877v-7.27h5.514v1.348Z" fill="#fff"/>
      <path id="Path_149" data-name="Path 149" d="M86.255,294.717H36.425a6.242,6.242,0,0,1-6.315-6.241V219.49a6.241,6.241,0,0,1,6.241-6.241H68.014L92.52,238.482v50.026a6.241,6.241,0,0,1-6.266,6.209Z" fill="#ebebeb"/>
      <path id="Path_150" data-name="Path 150" d="M68.014,213.216v19.426a5.8,5.8,0,0,0,5.8,5.8H92.488Z" fill="#f5f5f5"/>
      <path id="Path_151" data-name="Path 151" d="M68.267,234.341s-.245,4.713,5.114,6.265c.2.057.409.1.613.139,2.451.433,18.494,3.268,18.494,2.925v-5.22H73.814S69.149,238.278,68.267,234.341Z" fill="#e0e0e0"/>
      <path id="Path_152" data-name="Path 152" d="M86.255,294.717a6.684,6.684,0,0,0,1.078-.131,6.257,6.257,0,0,0,2.826-1.315,6.169,6.169,0,0,0,2.23-4.4v-6.952c0-10.456-.049-25.4-.074-43.466l.049.122L67.859,213.355l.147.065H37.781a15.541,15.541,0,0,0-2.4.09,6,6,0,0,0-5.016,5.506V287.03a14.566,14.566,0,0,0,.114,2.622,6.1,6.1,0,0,0,5.13,4.828,24.149,24.149,0,0,0,2.451.065h9.37l28.428.1h7.72l-7.72.041-28.411.066H38.034a23.69,23.69,0,0,1-2.5-.066,6.329,6.329,0,0,1-2.451-.817,6.428,6.428,0,0,1-2.974-4.125,14.9,14.9,0,0,1-.131-2.688V218.991a6.454,6.454,0,0,1,5.375-5.9A15.8,15.8,0,0,1,37.805,213H68.1l.065.057,24.458,25.25.049.057v.073c0,18.062-.057,33.011-.074,43.467,0,2.606,0,4.9-.041,6.96a6.257,6.257,0,0,1-5.212,5.767,5.331,5.331,0,0,1-.817.074Z" fill="#263238"/>
      <path id="Path_153" data-name="Path 153" d="M92.488,238.45a3.131,3.131,0,0,1-.474.04l-1.381.041-5.056.066-7.507.041H73.634a6.021,6.021,0,0,1-5.555-4.2,7.1,7.1,0,0,1-.278-2.386V220.119c0-2.157.049-3.807.065-5.057v-1.38a1.819,1.819,0,0,1,.049-.474,3.125,3.125,0,0,1,0,.474v1.38c0,1.25,0,2.965.065,5.057s0,4.7.049,7.507v4.427a6.539,6.539,0,0,0,.261,2.255,5.612,5.612,0,0,0,5.171,3.913h4.419l7.507.049,5.057.065h1.381A1.822,1.822,0,0,1,92.488,238.45Z" fill="#263238"/>
      <path id="Path_154" data-name="Path 154" d="M67.066,230.55c0,.115-5.89.213-13.152.213s-13.152-.1-13.152-.213,5.882-.212,13.152-.212S67.066,230.428,67.066,230.55Z" fill="#263238"/>
      <path id="Path_155" data-name="Path 155" d="M79.548,240.239c0,.114-8.684.212-19.393.212s-19.426-.1-19.426-.212,8.675-.213,19.393-.213S79.548,240.124,79.548,240.239Z" fill="#263238"/>
      <path id="Path_156" data-name="Path 156" d="M79.548,249.927c0,.122-8.684.212-19.393.212s-19.426-.09-19.426-.212,8.675-.213,19.393-.213S79.548,249.813,79.548,249.927Z" fill="#263238"/>
      <path id="Path_157" data-name="Path 157" d="M79.548,259.615c0,.123-8.684.213-19.393.213s-19.426-.09-19.426-.213,8.675-.212,19.393-.212S79.548,259.517,79.548,259.615Z" fill="#263238"/>
      <path id="Path_158" data-name="Path 158" d="M79.548,269.32c0,.114-8.684.212-19.393.212s-19.426-.106-19.426-.212,8.675-.213,19.393-.213S79.548,269.189,79.548,269.32Z" fill="#263238"/>
      <path id="Path_159" data-name="Path 159" d="M79.548,279c0,.114-8.684.212-19.393.212S40.73,279.122,40.73,279s8.675-.212,19.393-.212S79.548,278.886,79.548,279Z" fill="#263238"/>
      <path id="Path_160" data-name="Path 160" d="M57.876,262.229H22.415a3.448,3.448,0,0,0-3.447,3.447v12.139a3.448,3.448,0,0,0,3.447,3.448H57.876a3.448,3.448,0,0,0,3.447-3.448V265.676A3.448,3.448,0,0,0,57.876,262.229Z" fill="#c98bb9"/>
      <path id="Path_161" data-name="Path 161" d="M35.543,271.035c0,1.634-1.2,2.606-3.121,2.606H30.976v1.977H29.294v-7.189h3.112C34.342,268.429,35.543,269.426,35.543,271.035Zm-1.683,0c0-.817-.515-1.25-1.528-1.25H30.976v2.5h1.356C33.378,272.285,33.86,271.819,33.86,271.035Z" fill="#fff"/>
      <path id="Path_162" data-name="Path 162" d="M42.96,271.035c0,1.634-1.2,2.606-3.12,2.606H38.386v1.977H36.752v-7.189h3.112C41.759,268.429,42.96,269.426,42.96,271.035Zm-1.683,0c0-.817-.515-1.25-1.536-1.25H38.386v2.5h1.356C40.73,272.285,41.277,271.819,41.277,271.035Z" fill="#fff"/>
      <path id="Path_163" data-name="Path 163" d="M45.435,269.785h-2.3v-1.356H49.4v1.356H47.1v5.833H45.468Z" fill="#fff"/>
      <path id="Path_164" data-name="Path 164" d="M184.306,97.545H134.754a6.2,6.2,0,0,1-6.2-6.2V22.767a6.2,6.2,0,0,1,6.2-6.2h31.425l24.327,25.07V91.344a6.2,6.2,0,0,1-6.2,6.2Z" fill="#ebebeb"/>
      <path id="Path_165" data-name="Path 165" d="M166.179,16.566V35.861a5.767,5.767,0,0,0,5.767,5.767h18.56Z" fill="#f5f5f5"/>
      <path id="Path_166" data-name="Path 166" d="M166.433,37.561s-.245,4.681,5.081,6.216a5.513,5.513,0,0,0,.612.139c2.451.433,18.38,3.268,18.38,2.908V41.637H171.947S167.348,41.473,166.433,37.561Z" fill="#e0e0e0"/>
      <path id="Path_167" data-name="Path 167" d="M184.306,97.545a6.56,6.56,0,0,0,1.07-.131,6.125,6.125,0,0,0,5.024-5.677V84.826c0-10.383-.041-25.242-.073-43.189l.049.123L166.032,16.705l.147.065H136.151a15.255,15.255,0,0,0-2.378.082,6.031,6.031,0,0,0-3.888,2.451,5.9,5.9,0,0,0-1.1,3.047c-.04,1.1,0,2.246,0,3.366V89.939a14.462,14.462,0,0,0,.115,2.606,6.033,6.033,0,0,0,2.81,3.986,5.963,5.963,0,0,0,2.279.817,24.291,24.291,0,0,0,2.451.065H145.8l28.223.065h0l-28.223.065h-9.353a20.446,20.446,0,0,1-2.451-.057,6.377,6.377,0,0,1-5.391-5.056,14.043,14.043,0,0,1-.131-2.679V22.309a6.4,6.4,0,0,1,5.342-5.865,15.449,15.449,0,0,1,2.451-.09h30.11l.066.057,24.3,25.095.049.049v.074c0,17.972-.057,32.806-.073,43.189,0,2.59,0,4.9-.041,6.919a6.245,6.245,0,0,1-2.312,4.444,6.153,6.153,0,0,1-2.867,1.283,5.177,5.177,0,0,1-.817.074Z" fill="#263238"/>
      <path id="Path_168" data-name="Path 168" d="M190.506,41.637a3.314,3.314,0,0,1-.482,0H188.66l-5.032.065-7.45.041h-4.411a6,6,0,0,1-5.522-4.174,6.93,6.93,0,0,1-.278-2.361V23.347c0-2.14.057-3.782.073-5.032a13.107,13.107,0,0,1,.041-1.364,1.635,1.635,0,0,1,0-.474,2.151,2.151,0,0,1,.041.474v1.364c0,1.25.041,2.949.066,5.032s0,4.664.049,7.45v4.411a6.467,6.467,0,0,0,.261,2.238,5.6,5.6,0,0,0,5.138,3.88h4.4l7.45.049,5.032.073h1.364A1.925,1.925,0,0,1,190.506,41.637Z" fill="#263238"/>
      <path id="Path_169" data-name="Path 169" d="M165.24,33.786c0,.114-5.849.212-13.07.212s-13.07-.1-13.07-.212,5.849-.212,13.07-.212S165.24,33.672,165.24,33.786Z" fill="#263238"/>
      <path id="Path_170" data-name="Path 170" d="M177.649,43.418c0,.114-8.635.212-19.279.212s-19.27-.1-19.27-.212,8.642-.212,19.262-.212S177.649,43.3,177.649,43.418Z" fill="#263238"/>
      <path id="Path_171" data-name="Path 171" d="M177.649,53.041c0,.123-8.635.212-19.279.212s-19.27-.09-19.27-.212,8.642-.2,19.262-.2S177.649,52.926,177.649,53.041Z" fill="#263238"/>
      <path id="Path_172" data-name="Path 172" d="M177.649,62.647c0,.114-8.635.212-19.279.212s-19.27-.1-19.27-.212,8.626-.212,19.27-.212S177.649,62.557,177.649,62.647Z" fill="#263238"/>
      <path id="Path_173" data-name="Path 173" d="M177.649,72.3c0,.114-8.635.212-19.279.212s-19.27-.1-19.27-.212,8.626-.212,19.27-.212S177.649,72.18,177.649,72.3Z" fill="#263238"/>
      <path id="Path_174" data-name="Path 174" d="M177.649,81.926c0,.123-8.635.221-19.279.212s-19.27-.09-19.27-.212,8.626-.212,19.27-.212S177.649,81.811,177.649,81.926Z" fill="#263238"/>
      <path id="Path_175" data-name="Path 175" d="M156.083,65.261H120.891a3.447,3.447,0,0,0-3.447,3.447V80.725a3.447,3.447,0,0,0,3.447,3.447h35.192a3.447,3.447,0,0,0,3.447-3.447V68.709A3.447,3.447,0,0,0,156.083,65.261Z" fill="#c98bb9"/>
      <path id="Path_176" data-name="Path 176" d="M132.221,78.56l-1.732-2.451L128.8,78.56h-1.887l2.647-3.635-2.508-3.513h1.9l1.633,2.32,1.634-2.32h1.789l-2.451,3.455,2.664,3.692Z" fill="#fff"/>
      <path id="Path_177" data-name="Path 177" d="M134.794,71.412h1.634v5.8h3.586V78.56h-5.236Z" fill="#fff"/>
      <path id="Path_178" data-name="Path 178" d="M140.39,77.858l.556-1.242a4.261,4.261,0,0,0,2.36.743c.981,0,1.381-.327,1.381-.768,0-1.34-4.158-.417-4.158-3.072,0-1.217.98-2.23,3.014-2.23a4.838,4.838,0,0,1,2.451.637l-.515,1.258a3.971,3.971,0,0,0-1.977-.564c-.98,0-1.364.368-1.364.817,0,1.315,4.158.409,4.158,3.031,0,1.193-.988,2.214-3.03,2.214A5.075,5.075,0,0,1,140.39,77.858Z" fill="#fff"/>
      <path id="Path_179" data-name="Path 179" d="M490.786,304.4H440.441a6.3,6.3,0,0,1-6.3-6.3V228.426a6.3,6.3,0,0,1,6.3-6.3h31.924L497.084,247.6v50.5a6.3,6.3,0,0,1-6.3,6.3Z" fill="#ebebeb"/>
      <path id="Path_180" data-name="Path 180" d="M472.365,222.128v19.606a5.858,5.858,0,0,0,5.857,5.857h18.862Z" fill="#f5f5f5"/>
      <path id="Path_181" data-name="Path 181" d="M472.627,243.457s-.245,4.754,5.162,6.315a6.024,6.024,0,0,0,.621.147c2.451.433,18.674,3.316,18.674,2.949V247.6H478.222S473.517,247.435,472.627,243.457Z" fill="#e0e0e0"/>
      <path id="Path_182" data-name="Path 182" d="M490.786,304.4a6.725,6.725,0,0,0,1.087-.131,6.263,6.263,0,0,0,5.113-5.775v-7.017c0-10.546,0-25.642-.073-43.875l.049.122-24.736-25.454.139.065h-30.5a14.979,14.979,0,0,0-2.451.09,6.025,6.025,0,0,0-3.945,2.451,5.945,5.945,0,0,0-1.12,3.1v68.651a14.2,14.2,0,0,0,.123,2.655,6.153,6.153,0,0,0,5.171,4.9,24.462,24.462,0,0,0,2.451.065h9.5l28.681.065,7.793.041h0l-7.793.041-28.681.065h-9.5a23.75,23.75,0,0,1-2.517-.065,6.271,6.271,0,0,1-2.45-.858,6.493,6.493,0,0,1-3.023-4.272,15.271,15.271,0,0,1-.13-2.72V227.961a6.439,6.439,0,0,1,1.192-3.317,6.535,6.535,0,0,1,4.232-2.638,15.912,15.912,0,0,1,2.45-.09h30.609l.057.057,24.7,25.495.049.049v.074c0,18.233-.057,33.329-.074,43.875V298.5a6.39,6.39,0,0,1-2.344,4.517,6.287,6.287,0,0,1-2.916,1.3,5.326,5.326,0,0,1-.817.074Z" fill="#263238"/>
      <path id="Path_183" data-name="Path 183" d="M497.084,247.6a3.341,3.341,0,0,1-.49,0l-1.389.041-5.1.065-7.573.041h-4.476a6.045,6.045,0,0,1-4.379-2.059,5.981,5.981,0,0,1-1.233-2.181,6.775,6.775,0,0,1-.278-2.4v-4.476c0-2.835,0-5.4.049-7.573s.049-3.839.065-5.1a13.535,13.535,0,0,1,.041-1.389,3.225,3.225,0,0,1,0-.482,1.82,1.82,0,0,1,.049.482v1.389c0,1.266,0,2.99.066,5.1s0,4.738,0,7.573V241.1a6.7,6.7,0,0,0,.261,2.28,5.77,5.77,0,0,0,1.152,2.026,5.673,5.673,0,0,0,4.084,1.919H482.4l7.572.049,5.106.066,1.388.04A1.961,1.961,0,0,1,497.084,247.6Z" fill="#263238"/>
      <path id="Path_184" data-name="Path 184" d="M471.418,239.626c0,.114-5.947.212-13.283.212s-13.274-.1-13.274-.212,5.947-.212,13.274-.212S471.418,239.5,471.418,239.626Z" fill="#263238"/>
      <path id="Path_185" data-name="Path 185" d="M484.022,249.4c0,.123-8.773.212-19.605.212s-19.6-.089-19.6-.212,8.765-.212,19.6-.212S484.022,249.29,484.022,249.4Z" fill="#263238"/>
      <path id="Path_186" data-name="Path 186" d="M484.022,259.19c0,.115-8.773.213-19.605.213s-19.6-.1-19.6-.213,8.765-.212,19.6-.212S484.022,259.068,484.022,259.19Z" fill="#263238"/>
      <path id="Path_187" data-name="Path 187" d="M484.022,268.969c0,.114-8.773.212-19.605.212s-19.6-.1-19.6-.212,8.765-.213,19.6-.213S484.022,268.854,484.022,268.969Z" fill="#263238"/>
      <path id="Path_188" data-name="Path 188" d="M484.022,278.755c0,.114-8.773.212-19.605.212s-19.6-.1-19.6-.212,8.765-.213,19.6-.213S484.022,278.632,484.022,278.755Z" fill="#263238"/>
      <path id="Path_189" data-name="Path 189" d="M484.022,290.812c0,.123-8.773.221-19.605.221s-19.6-.1-19.6-.221,8.765-.212,19.6-.212S484.022,290.7,484.022,290.812Z" fill="#263238"/>
      <path id="Path_190" data-name="Path 190" d="M462.17,271.6H426.309a3.447,3.447,0,0,0-3.447,3.447v12.319a3.447,3.447,0,0,0,3.447,3.447H462.17a3.448,3.448,0,0,0,3.448-3.447V275.046A3.448,3.448,0,0,0,462.17,271.6Z" fill="#c98bb9"/>
      <path id="Path_191" data-name="Path 191" d="M427.812,277.873h3.268c2.369,0,4,1.429,4,3.627s-1.634,3.627-4,3.627h-3.268Zm3.211,5.873a2.255,2.255,0,1,0,0-4.5h-1.528v4.5Z" fill="#fff"/>
      <path id="Path_192" data-name="Path 192" d="M435.916,281.5a3.978,3.978,0,1,1,3.978,3.757,3.766,3.766,0,0,1-3.978-3.757Zm6.249,0a2.27,2.27,0,1,0-2.271,2.32,2.215,2.215,0,0,0,2.271-2.32Z" fill="#fff"/>
      <path id="Path_193" data-name="Path 193" d="M444.673,281.5a3.994,3.994,0,0,1,6.927-2.451l-1.078,1a2.339,2.339,0,1,0-.817,3.6,2.313,2.313,0,0,0,.817-.638l1.078,1a3.986,3.986,0,0,1-6.927-2.45Z" fill="#fff"/>
      <path id="Path_194" data-name="Path 194" d="M457.155,285.127l-1.756-2.516-1.716,2.516h-1.936l2.688-3.693-2.549-3.561H453.8l1.634,2.352,1.634-2.352h1.813l-2.532,3.5,2.7,3.75Z" fill="#fff"/>
    </g>
  </g>
</svg>
