<svg width="74" height="96" viewBox="0 0 74 96" fill="none" xmlns="http://www.w3.org/2000/svg">
<path d="M68.7629 0.269104H5C2.23858 0.269104 0 2.50768 0 5.2691V69.9688C0 72.7302 2.23858 74.9688 5 74.9688H68.7629C71.5243 74.9688 73.7629 72.7302 73.7629 69.9688V5.2691C73.7629 2.50768 71.5243 0.269104 68.7629 0.269104Z" fill="#480355"/>
<path d="M65.9281 5.78326H13.1682C11.5113 5.78326 10.1682 7.12641 10.1682 8.78326V45.7665C10.1682 47.4233 11.5113 48.7665 13.1682 48.7665H65.9281C67.585 48.7665 68.9281 47.4233 68.9281 45.7665V8.78326C68.9281 7.12641 67.585 5.78326 65.9281 5.78326Z" fill="#F7DFEE"/>
<path d="M73.7629 87.6433C73.7629 89.5996 72.9858 91.4758 71.6025 92.8591C70.2191 94.2424 68.3429 95.0196 66.3866 95.0196H7.37629C5.41998 95.0196 3.54379 94.2424 2.16047 92.8591C0.777143 91.4758 0 89.5996 0 87.6433V36.0092C0 34.0529 0.777143 32.1767 2.16047 30.7934C3.54379 29.4101 5.41998 28.6329 7.37629 28.6329H24.2115C25.2145 28.6329 26.1512 29.1342 26.7076 29.9688L32.3027 38.3615C32.8591 39.1961 33.7958 39.6974 34.7989 39.6974H66.3866C68.3429 39.6974 70.2191 40.4745 71.6025 41.8578C72.9858 43.2412 73.7629 45.1173 73.7629 47.0737V87.6433Z" fill="#C98BB9"/>
</svg>
