<svg width="161" height="41" viewBox="0 0 161 41" fill="none" xmlns="http://www.w3.org/2000/svg">
<path d="M14.0309 39.6414C11.306 39.6414 8.90655 38.9656 6.79175 37.5717C4.67696 36.1779 3.05019 34.3194 1.83011 32.0807C0.610038 29.7998 0 27.2655 0 24.52C0 21.7745 0.569368 19.2824 1.74877 17.086C2.92818 14.8473 4.55495 13.0311 6.66974 11.6794C8.78454 10.3278 11.184 9.60974 13.9495 9.60974C16.5524 9.60974 18.8298 10.2433 20.7819 11.5105C22.4087 12.482 23.6695 13.7914 24.6455 15.3542C25.0115 15.9455 24.7269 16.7058 24.1168 16.917L22.4901 17.4661C22.0427 17.5928 21.5953 17.4239 21.3513 17.0015C20.6193 15.8611 19.6432 14.9318 18.4231 14.256C17.0404 13.4112 15.495 12.9888 13.7869 12.9888C11.9161 12.9888 10.1673 13.4957 8.66253 14.5094C7.15777 15.5232 5.9377 16.917 5.04298 18.6911C4.14826 20.4228 3.7009 22.4081 3.7009 24.5622C3.7009 26.7586 4.14826 28.7439 5.08365 30.5179C6.01904 32.2919 7.23911 33.728 8.78454 34.784C10.33 35.8399 11.9974 36.3468 13.8682 36.3468C15.0883 36.3468 16.2677 36.1356 17.4064 35.671C18.5451 35.2064 19.5212 34.615 20.3346 33.897C20.904 33.3479 21.3513 32.7565 21.6767 32.1652C21.88 31.7428 22.368 31.5316 22.8154 31.6583L24.4422 32.1652C25.0522 32.3341 25.3369 33.0522 25.0522 33.6435C24.5642 34.5728 23.9135 35.4176 23.1001 36.2201C21.9614 37.2761 20.6193 38.1631 19.0332 38.7544C17.4877 39.3458 15.7796 39.6414 14.0309 39.6414Z" fill="white"/>
<path d="M60.6785 38.4588L50.1858 11.595C49.9012 10.9192 50.3892 10.1589 51.1212 10.1589H52.748C53.1547 10.1589 53.5207 10.4123 53.6834 10.8347L62.3459 33.728C62.5493 34.3194 63.3627 34.3194 63.566 33.728L72.2692 10.8347C72.4319 10.4545 72.7979 10.1589 73.2046 10.1589H74.628C75.3194 10.1589 75.8074 10.9192 75.5634 11.595L65.0708 38.4588C64.9081 38.8389 64.5421 39.0924 64.1354 39.0924H61.5732C61.1665 39.1346 60.8005 38.8812 60.6785 38.4588Z" fill="white"/>
<path d="M88.7401 39.6414C86.0559 39.6414 83.6564 38.9656 81.5823 37.5717C79.4675 36.2201 77.8 34.3616 76.6206 32.0807C75.4006 29.7998 74.7905 27.2655 74.7905 24.52C74.7905 21.8167 75.3599 19.3246 76.5393 17.086C77.7594 14.8473 79.4268 13.0311 81.5009 11.6794C83.6157 10.3278 85.9746 9.60974 88.6587 9.60974C91.4242 9.60974 93.8237 10.2856 95.8978 11.6794C97.972 13.0311 99.5581 14.8473 100.697 17.1282C101.876 19.3669 102.446 21.7745 102.446 24.4777C102.446 24.6467 102.446 24.8157 102.446 24.9424C102.446 25.4915 101.998 25.9561 101.429 25.9561H79.2641C78.8574 25.9561 78.5321 26.3362 78.6134 26.7164C78.8574 28.4904 79.3861 30.0955 80.2402 31.4894C81.2163 33.0944 82.4363 34.3616 83.9411 35.3331C85.4459 36.2623 87.0726 36.727 88.8621 36.727C90.6922 36.727 92.4003 36.2623 93.9864 35.2908C95.3691 34.4883 96.3859 33.4323 97.0772 32.1652C97.2806 31.785 97.7686 31.6161 98.1753 31.7006L99.3547 32.0385C99.9648 32.2074 100.29 32.9677 99.9648 33.5591C99.4361 34.4883 98.7447 35.3753 97.85 36.1356C96.6706 37.1916 95.2878 38.0786 93.7424 38.6699C92.2783 39.3458 90.5702 39.6414 88.7401 39.6414ZM79.2235 23.2528H99.07C98.9074 21.1831 98.3787 19.3669 97.4026 17.7618C96.4265 16.1145 95.2065 14.8896 93.7017 14.0026C92.1969 13.0733 90.5295 12.6087 88.7401 12.6087C86.9099 12.6087 85.2832 13.0733 83.7784 14.0026C82.2737 14.8896 81.0536 16.1567 80.0775 17.7618C79.2641 19.1557 78.7354 20.7185 78.5321 22.4925C78.4914 22.8727 78.8168 23.2528 79.2235 23.2528Z" fill="white"/>
<path d="M118.266 36.7692C118.428 37.276 118.184 37.8251 117.696 38.0363C117.29 38.2053 116.802 38.4165 116.192 38.6699C115.053 39.1345 113.752 39.388 112.247 39.388C110.661 39.388 109.319 38.9233 108.139 37.9941C106.96 37.0648 106.39 35.6709 106.39 33.8124V13.8336C106.39 13.4534 106.106 13.1577 105.74 13.1577H103.544C102.974 13.1577 102.527 12.6931 102.527 12.1018V11.1725C102.527 10.5812 102.974 10.1166 103.544 10.1166H105.74C106.106 10.1166 106.39 9.82089 106.39 9.44075V1.4154C106.39 0.824061 106.838 0.359436 107.407 0.359436H109.034C109.603 0.359436 110.051 0.824061 110.051 1.4154V9.48299C110.051 9.86313 110.335 10.1588 110.701 10.1588H115.46C116.029 10.1588 116.476 10.6234 116.476 11.2148V12.144C116.476 12.7354 116.029 13.2 115.46 13.2H110.701C110.335 13.2 110.051 13.4957 110.051 13.8758V32.841C110.132 33.8969 110.498 34.6995 111.108 35.2486C111.799 35.7132 112.572 35.9666 113.426 35.9666C114.443 35.9666 115.297 35.7977 116.11 35.4598C116.314 35.3753 116.517 35.2908 116.68 35.2063C117.208 34.9529 117.859 35.2486 118.022 35.8399L118.266 36.7692Z" fill="white"/>
<path d="M133.517 36.7692C133.68 37.276 133.436 37.8251 132.948 38.0363C132.541 38.2053 132.053 38.4165 131.443 38.6699C130.304 39.1345 129.003 39.388 127.498 39.388C125.912 39.388 124.57 38.9233 123.39 37.9941C122.211 37.0648 121.642 35.6709 121.642 33.8124V13.8336C121.642 13.4534 121.357 13.1577 120.991 13.1577H118.754C118.185 13.1577 117.737 12.6931 117.737 12.1018V11.1725C117.737 10.5812 118.185 10.1166 118.754 10.1166H120.95C121.316 10.1166 121.601 9.82089 121.601 9.44075V1.4154C121.601 0.824061 122.048 0.359436 122.618 0.359436H124.244C124.814 0.359436 125.261 0.824061 125.261 1.4154V9.48299C125.261 9.86313 125.546 10.1588 125.912 10.1588H130.67C131.239 10.1588 131.687 10.6234 131.687 11.2148V12.144C131.687 12.7354 131.239 13.2 130.67 13.2H125.912C125.546 13.2 125.261 13.4957 125.261 13.8758V32.841C125.342 33.8969 125.708 34.6995 126.319 35.2486C127.01 35.7132 127.783 35.9666 128.637 35.9666C129.653 35.9666 130.507 35.7977 131.321 35.4598C131.524 35.3753 131.727 35.2908 131.89 35.2063C132.419 34.9529 133.07 35.2486 133.232 35.8399L133.517 36.7692Z" fill="white"/>
<path d="M146.409 39.4724C143.725 39.4724 141.325 38.7966 139.251 37.4027C137.136 36.0511 135.469 34.1926 134.29 31.9117C133.07 29.6308 132.459 27.0965 132.459 24.351C132.459 21.6477 133.029 19.1556 134.208 16.917C135.428 14.6783 137.096 12.8621 139.17 11.5104C141.285 10.1588 143.643 9.44073 146.328 9.44073C149.093 9.44073 151.493 10.1166 153.567 11.5104C155.641 12.8621 157.227 14.6783 158.366 16.9592C159.545 19.1979 160.115 21.6055 160.115 24.3087C160.115 24.4777 160.115 24.6466 160.115 24.7734C160.115 25.3225 159.667 25.7871 159.098 25.7871H136.933C136.526 25.7871 136.201 26.1672 136.282 26.5474C136.526 28.3214 137.055 29.8842 137.909 31.3204C138.885 32.9254 140.105 34.1926 141.61 35.1641C143.115 36.0933 144.742 36.5579 146.531 36.5579C148.361 36.5579 150.069 36.0933 151.655 35.1218C153.038 34.3193 154.055 33.2633 154.746 31.9962C154.95 31.616 155.438 31.4471 155.844 31.5316L157.024 31.8695C157.634 32.0384 157.959 32.7987 157.634 33.39C157.105 34.3193 156.414 35.2063 155.519 35.9666C154.339 37.0226 152.957 37.9096 151.411 38.5009C149.907 39.1767 148.198 39.4724 146.409 39.4724ZM136.852 23.0838H155.966C156.373 23.0838 156.698 22.7037 156.617 22.3235C156.414 20.5495 155.885 18.9867 155.031 17.5928C154.055 15.9455 152.835 14.7206 151.33 13.8336C149.825 12.9043 148.158 12.4397 146.368 12.4397C144.538 12.4397 142.911 12.9043 141.407 13.8336C139.902 14.7206 138.682 15.9877 137.706 17.5928C136.892 18.9867 136.364 20.5495 136.16 22.3235C136.16 22.7459 136.486 23.0838 136.852 23.0838Z" fill="white"/>
<path d="M47.583 9.94758L50.4298 34.0659C50.7145 36.3467 49.1284 38.4164 46.9323 38.7121L34.0808 40.3594C31.8847 40.6551 29.8919 39.0078 29.6072 36.7269L26.7197 12.3974C26.679 11.975 26.9637 11.5527 27.4111 11.5104L29.4852 11.257C29.8919 11.2147 30.2986 11.5104 30.3392 11.975L33.0234 34.5727C33.1454 35.7132 34.1621 36.5157 35.2602 36.389L44.8988 35.1641C45.9969 35.0373 46.7696 33.9814 46.6476 32.8409L43.9634 10.1588C43.9227 9.73639 44.2074 9.314 44.6548 9.27176L46.5256 9.01833C47.0136 8.93385 47.5423 9.35624 47.583 9.94758Z" fill="#ACBAC9"/>
<path d="M43.3533 32.9254L36.2362 33.8124C35.7482 33.8969 35.2602 33.5167 35.2195 32.9676L34.3248 25.4914L33.7147 20.2538C33.6741 20.0426 33.8774 19.9159 34.0401 19.9581L35.0975 20.296C37.2123 20.9296 39.4491 20.8874 41.5232 20.0848L42.3773 19.7469C42.5399 19.7047 42.7026 19.7891 42.7026 19.9581L44.0854 31.8272C44.2074 32.3763 43.8414 32.8831 43.3533 32.9254Z" fill="#0B66EF"/>
</svg>
